<svg width="16" height="16" viewBox="0 0 16 16" fill="none" xmlns="http://www.w3.org/2000/svg">
<path fill-rule="evenodd" clip-rule="evenodd" d="M1 7.99986C1 7.86725 1.05268 7.74007 1.14645 7.64631C1.24021 7.55254 1.36739 7.49986 1.5 7.49986L13.293 7.49986L10.146 4.35386C10.0521 4.25998 9.99937 4.13264 9.99937 3.99986C9.99937 3.86709 10.0521 3.73975 10.146 3.64586C10.2399 3.55198 10.3672 3.49923 10.5 3.49923C10.6328 3.49923 10.7601 3.55198 10.854 3.64586L14.854 7.64586C14.9006 7.69231 14.9375 7.74748 14.9627 7.80823C14.9879 7.86897 15.0009 7.93409 15.0009 7.99986C15.0009 8.06563 14.9879 8.13075 14.9627 8.19149C14.9375 8.25224 14.9006 8.30741 14.854 8.35386L10.854 12.3539C10.7601 12.4477 10.6328 12.5005 10.5 12.5005C10.3672 12.5005 10.2399 12.4477 10.146 12.3539C10.0521 12.26 9.99937 12.1326 9.99937 11.9999C9.99937 11.8671 10.0521 11.7397 10.146 11.6459L13.293 8.49986H1.5C1.36739 8.49986 1.24021 8.44718 1.14645 8.35341C1.05268 8.25964 1 8.13247 1 7.99986V7.99986Z" fill="#4E4E4E"/>
</svg>
