<svg width="16" height="16" viewBox="0 0 16 16" fill="none" xmlns="http://www.w3.org/2000/svg">
<path d="M13.2934 6.25108C12.9241 5.3837 12.3475 4.62024 11.6142 4.02773C10.881 3.43521 10.0135 3.03175 9.08788 2.85277L9.924 1.51499L9.076 0.984985L7.97272 2.75024C6.8489 2.75545 5.75123 3.0898 4.81533 3.71196C3.87943 4.33413 3.14632 5.21686 2.70656 6.25108C2.11752 6.26228 1.55638 6.50414 1.14377 6.92467C0.731151 7.3452 0.5 7.91084 0.5 8.49999C0.5 9.08914 0.731151 9.65478 1.14377 10.0753C1.55638 10.4958 2.11752 10.7377 2.70656 10.7489C3.14819 11.7874 3.88552 12.673 4.82675 13.2955C5.76798 13.9181 6.87153 14.25 8 14.25C9.12848 14.25 10.232 13.9181 11.1733 13.2955C12.1145 12.673 12.8518 11.7874 13.2934 10.7489C13.8825 10.7377 14.4436 10.4958 14.8562 10.0753C15.2689 9.65478 15.5 9.08914 15.5 8.49999C15.5 7.91084 15.2689 7.3452 14.8562 6.92467C14.4436 6.50414 13.8825 6.26228 13.2934 6.25108ZM14.1419 9.3753C13.9132 9.60921 13.6015 9.74352 13.2744 9.74908L12.6268 9.7614L12.3733 10.3575C12.0085 11.2155 11.3993 11.9472 10.6217 12.4616C9.84411 12.976 8.93236 13.2502 8.00002 13.2502C7.06767 13.2502 6.15593 12.976 5.37831 12.4616C4.6007 11.9472 3.99157 11.2155 3.62678 10.3575L3.37322 9.7614L2.72556 9.74908C2.39833 9.74296 2.08657 9.60867 1.85732 9.37508C1.62806 9.1415 1.49963 8.82728 1.49963 8.49999C1.49963 8.1727 1.62806 7.85848 1.85732 7.6249C2.08657 7.39131 2.39833 7.25702 2.72556 7.25089L3.37322 7.23858L3.62678 6.64252C3.99158 5.78451 4.60071 5.05277 5.37832 4.5384C6.15594 4.02404 7.06768 3.74978 8.00002 3.74978C8.93235 3.74978 9.8441 4.02404 10.6217 4.5384C11.3993 5.05277 12.0085 5.78451 12.3733 6.64252L12.6268 7.23858L13.2744 7.25089C13.5185 7.25551 13.7559 7.33153 13.9572 7.46957C14.1585 7.60761 14.315 7.80161 14.4073 8.02761C14.4996 8.25361 14.5236 8.50169 14.4765 8.7412C14.4293 8.98072 14.313 9.20116 14.1419 9.3753V9.3753Z" fill="#718096"/>
<path d="M5.25 7.25H6.5V8.5H5.25V7.25ZM9.5 7.25H10.75V8.5H9.5V7.25ZM8 12C8.3283 12 8.65339 11.9353 8.95671 11.8097C9.26002 11.6841 9.53562 11.4999 9.76777 11.2678C9.99991 11.0356 10.1841 10.76 10.3097 10.4567C10.4353 10.1534 10.5 9.8283 10.5 9.5H5.5C5.5 9.8283 5.56466 10.1534 5.6903 10.4567C5.81594 10.76 6.00009 11.0356 6.23223 11.2678C6.70107 11.7366 7.33696 12 8 12V12Z" fill="#718096"/>
</svg>
