<svg width="16" height="16" viewBox="0 0 16 16" fill="none" xmlns="http://www.w3.org/2000/svg">
<path d="M13.3333 2H2.66667C2.48986 2 2.32029 2.07024 2.19526 2.19526C2.07024 2.32029 2 2.48986 2 2.66667V4.39333C2 4.742 2.142 5.08467 2.38867 5.33133L6 8.94267V14C6.00013 14.1136 6.02925 14.2253 6.0846 14.3244C6.13995 14.4236 6.2197 14.507 6.3163 14.5668C6.41289 14.6265 6.52314 14.6606 6.6366 14.6659C6.75006 14.6711 6.86298 14.6473 6.96467 14.5967L9.63133 13.2633C9.85733 13.15 10 12.9193 10 12.6667V8.94267L13.6113 5.33133C13.858 5.08467 14 4.742 14 4.39333V2.66667C14 2.48986 13.9298 2.32029 13.8047 2.19526C13.6797 2.07024 13.5101 2 13.3333 2V2ZM8.862 8.19533C8.79997 8.25714 8.75078 8.3306 8.71726 8.41149C8.68373 8.49238 8.66654 8.5791 8.66667 8.66667V12.2547L7.33333 12.9213V8.66667C7.33346 8.5791 7.31627 8.49238 7.28274 8.41149C7.24922 8.3306 7.20003 8.25714 7.138 8.19533L3.33333 4.39333V3.33333H12.6673L12.6687 4.38867L8.862 8.19533V8.19533Z" fill="#718096"/>
</svg>
