<svg width="162" height="162" viewBox="0 0 162 162" fill="none" xmlns="http://www.w3.org/2000/svg">
<path d="M13.501 40.5005C13.501 36.9201 14.9233 33.4863 17.455 30.9545C19.9868 28.4228 23.4206 27.0005 27.001 27.0005H135.001C138.581 27.0005 142.015 28.4228 144.547 30.9545C147.079 33.4863 148.501 36.9201 148.501 40.5005V121.5C148.501 125.081 147.079 128.515 144.547 131.046C142.015 133.578 138.581 135 135.001 135H27.001C23.4206 135 19.9868 133.578 17.455 131.046C14.9233 128.515 13.501 125.081 13.501 121.5V40.5005Z" fill="#D3AB9E" stroke="black" stroke-width="4" stroke-linecap="round" stroke-linejoin="round"/>
<path d="M13.501 54.0005L64.1327 94.5072C68.9204 98.3379 74.8694 100.425 81.001 100.425C87.1326 100.425 93.0815 98.3379 97.8692 94.5072L148.501 54.0005" fill="#D3AB9E"/>
<path d="M13.501 54.0005L64.1327 94.5072C68.9204 98.3379 74.8694 100.425 81.001 100.425C87.1326 100.425 93.0815 98.3379 97.8692 94.5072L148.501 54.0005" stroke="black" stroke-width="4" stroke-linejoin="round"/>
</svg>
