<svg width="24" height="24" viewBox="0 0 24 24" fill="none" xmlns="http://www.w3.org/2000/svg">
<path d="M21.4501 8.2876C19.3876 2.7376 12.6376 5.2126 12.0001 7.9876C11.1376 5.0251 4.57507 2.8126 2.55007 8.2876C0.300072 14.3626 11.2126 19.8001 12.0001 20.7001C12.7876 19.9876 23.7001 14.2501 21.4501 8.2876Z" fill="#FF5A79"/>
<path d="M22.5 6.9374C22.275 6.2249 21.9 5.5874 21.375 5.0624C20.8875 4.5374 20.25 4.1249 19.6125 3.8624C19.275 3.7124 18.9375 3.6374 18.6 3.5624C18.4125 3.5249 18.2625 3.5249 18.075 3.4874H17.55L18 3.7124L18.45 3.9374C18.75 4.0874 19.05 4.2374 19.3125 4.4249C19.875 4.7624 20.3625 5.1749 20.8125 5.6249C21.2625 6.0749 21.6 6.5999 21.9375 7.1999C22.0875 7.4999 22.2375 7.7999 22.35 8.0999C22.425 8.2499 22.4625 8.4374 22.5375 8.5874L22.725 9.0749C22.7625 8.8874 22.7625 8.6999 22.7625 8.5499C22.7625 8.3624 22.7625 8.1749 22.725 8.0249C22.6875 7.6499 22.6125 7.2749 22.5 6.9374V6.9374ZM23.25 5.9249C23.2125 5.6624 23.175 5.3999 23.1 5.1374C22.95 4.6124 22.65 4.1249 22.275 3.7124C21.9 3.2999 21.45 2.9999 20.9625 2.8499C20.7 2.7749 20.475 2.6999 20.2125 2.6624C20.1 2.6624 19.95 2.6249 19.8375 2.6249C19.725 2.6249 19.575 2.6249 19.4625 2.6624C19.575 2.7374 19.6875 2.7749 19.8 2.8499C19.875 2.8874 19.9875 2.9624 20.1 2.9999C20.325 3.1124 20.5125 3.2249 20.7 3.3749C21.075 3.6374 21.45 3.9374 21.75 4.2374C22.05 4.5749 22.3125 4.9499 22.575 5.3624C22.6875 5.5499 22.8 5.7749 22.9125 5.9999C22.95 6.1124 23.025 6.2249 23.0625 6.3374C23.1 6.4499 23.175 6.5624 23.2125 6.7124C23.25 6.5624 23.25 6.4499 23.25 6.2999V5.9249V5.9249ZM1.6125 8.0999C1.725 7.7999 1.875 7.4624 2.025 7.1999C2.325 6.5999 2.7 6.0749 3.15 5.6249C3.6 5.1749 4.0875 4.7624 4.65 4.4249C4.9125 4.2374 5.2125 4.0874 5.5125 3.9374L5.9625 3.7124L6.4125 3.4874H5.8875C5.7 3.4874 5.55 3.5249 5.3625 3.5624C5.025 3.6374 4.6875 3.7124 4.35 3.8624C3.7125 4.1249 3.1125 4.5374 2.625 5.0624C2.1375 5.5874 1.725 6.2249 1.5 6.9374C1.3875 7.2749 1.3125 7.6499 1.275 7.9874C1.2375 8.1749 1.2375 8.3624 1.2375 8.5124C1.2375 8.6999 1.2375 8.8874 1.275 9.0374L1.4625 8.5499C1.5 8.3999 1.5375 8.2499 1.6125 8.0999V8.0999ZM2.25 4.2749C2.55 3.9374 2.925 3.6374 3.3 3.3749C3.4875 3.2624 3.7125 3.1124 3.9 2.9999C4.0125 2.9249 4.125 2.8874 4.2375 2.8124C4.35 2.7374 4.4625 2.6999 4.575 2.6249C4.4625 2.6249 4.3125 2.5874 4.2 2.5874C4.0875 2.5874 3.9375 2.5874 3.825 2.6249C3.5625 2.6624 3.3375 2.7374 3.075 2.8124C2.55 3.0374 2.1 3.3374 1.725 3.7124C1.35 4.1249 1.05 4.6124 0.9 5.1374C0.825 5.3999 0.7875 5.6624 0.75 5.9249V6.3374C0.75 6.4874 0.75 6.5999 0.7875 6.7499C0.825 6.6374 0.9 6.5249 0.9375 6.3749C1.0125 6.2249 1.05 6.1124 1.125 5.9999C1.2375 5.7749 1.35 5.5499 1.4625 5.3624C1.6875 4.9499 1.95 4.5749 2.25 4.2749V4.2749ZM2.925 15.1874L2.8875 15.2624C3.075 15.8249 3.375 16.2749 3.675 16.7249C3.975 17.1749 4.35 17.5499 4.725 17.8874C5.1 18.2249 5.5125 18.5624 5.9625 18.8624C6.4125 19.1624 6.9 19.3874 7.4625 19.5374L7.5 19.4624C6.75 18.7124 6 17.9999 5.25 17.2874C4.4625 16.6124 3.7125 15.8624 2.925 15.1874V15.1874ZM1.35 16.3124L1.3125 16.3874C1.575 17.0249 1.9125 17.5499 2.2875 18.0374C2.6625 18.5249 3.075 18.9749 3.525 19.3874C3.975 19.7999 4.425 20.1749 4.95 20.5499C5.475 20.8874 6 21.2249 6.6375 21.4124L6.675 21.3374C5.8125 20.4749 4.9125 19.6499 4.05 18.7874C3.15 17.9624 2.25 17.0999 1.35 16.3124V16.3124ZM19.3125 17.8874C19.6875 17.5124 20.0625 17.1374 20.3625 16.7249C20.6625 16.3124 20.9625 15.8249 21.15 15.2624L21.1125 15.1874C20.325 15.8624 19.575 16.6124 18.7875 17.2874C18.0375 17.9999 17.2875 18.7124 16.5375 19.4624L16.575 19.5374C17.1375 19.3874 17.625 19.1249 18.075 18.8624C18.525 18.5624 18.9 18.2249 19.3125 17.8874V17.8874ZM19.95 18.7874C19.0875 19.6499 18.1875 20.4749 17.325 21.3374L17.3625 21.4124C18 21.1874 18.525 20.8874 19.05 20.5499C19.575 20.2124 20.025 19.8374 20.475 19.3874C20.925 18.9749 21.3375 18.5249 21.7125 18.0374C22.0875 17.5499 22.425 17.0249 22.6875 16.3874L22.65 16.3124C21.75 17.0999 20.85 17.9624 19.95 18.7874" fill="#FF5A79"/>
</svg>
