<svg width="24" height="24" viewBox="0 0 24 24" fill="none" xmlns="http://www.w3.org/2000/svg">
<path d="M22.1836 11.8359L13.1274 2.78437L12.5204 2.17734C12.382 2.03994 12.195 1.96283 12 1.96283C11.8051 1.96283 11.618 2.03994 11.4797 2.17734L1.81645 11.8359C1.67473 11.9771 1.56272 12.1452 1.48705 12.3304C1.41137 12.5156 1.37355 12.714 1.37583 12.9141C1.3852 13.7391 2.07192 14.3976 2.89692 14.3976H3.89302V22.0312H20.1071V14.3976H21.1243C21.525 14.3976 21.9024 14.2406 22.186 13.957C22.3256 13.8178 22.4363 13.6523 22.5115 13.4701C22.5867 13.2878 22.6251 13.0925 22.6243 12.8953C22.6243 12.4969 22.4672 12.1195 22.1836 11.8359V11.8359ZM13.3125 20.3437H10.6875V15.5625H13.3125V20.3437ZM18.4196 12.7101V20.3437H14.8125V15C14.8125 14.482 14.393 14.0625 13.875 14.0625H10.125C9.60708 14.0625 9.18755 14.482 9.18755 15V20.3437H5.58052V12.7101H3.33052L12.0024 4.04531L12.5438 4.58671L20.6719 12.7101H18.4196Z" fill="#718096"/>
</svg>
