<svg width="16" height="16" viewBox="0 0 16 16" fill="none" xmlns="http://www.w3.org/2000/svg">
<path d="M14.789 7.8906L8.75155 1.85623L8.34686 1.45154C8.25466 1.35994 8.12996 1.30853 7.99999 1.30853C7.87002 1.30853 7.74532 1.35994 7.65311 1.45154L1.21093 7.8906C1.11645 7.98471 1.04178 8.0968 0.991323 8.22025C0.940871 8.34369 0.91566 8.476 0.917179 8.60935C0.923429 9.15935 1.38124 9.59841 1.93124 9.59841H2.5953V14.6875H13.4047V9.59841H14.0828C14.35 9.59841 14.6015 9.49372 14.7906 9.30466C14.8837 9.21187 14.9575 9.10152 15.0076 8.98003C15.0578 8.85853 15.0833 8.72829 15.0828 8.59685C15.0828 8.33122 14.9781 8.07966 14.789 7.8906V7.8906ZM8.87499 13.5625H7.12499V10.375H8.87499V13.5625ZM12.2797 8.47341V13.5625H9.87499V9.99997C9.87499 9.65466 9.5953 9.37497 9.24999 9.37497H6.74999C6.40468 9.37497 6.12499 9.65466 6.12499 9.99997V13.5625H3.7203V8.47341H2.2203L8.00155 2.69685L8.36249 3.05779L13.7812 8.47341H12.2797Z" fill="#718096"/>
</svg>
