<svg width="21" height="40" viewBox="0 0 21 40" fill="none" xmlns="http://www.w3.org/2000/svg">
<path d="M6.73315 16.3341H10.5997V19.334H6.73315V16.3341Z" fill="#FFDD67"/>
<path d="M4.1333 27.5337V39H7.66652C7.66652 31.3336 8.2665 30.3336 8.2665 30.3336H8.99981C8.99981 30.3336 9.5998 31.3336 9.5998 39H13.133V27.5337H4.1333Z" fill="#231F20"/>
<path d="M9.59964 38.6001C10.1996 37.8668 12.5329 37.8668 13.1329 38.6001V40.0001H9.59964V38.6001ZM7.73303 38.6001C7.13305 37.8668 4.79979 37.8668 4.19981 38.6001V40.0001H7.79969C7.73303 40.0001 7.73303 38.6001 7.73303 38.6001ZM13.5995 17.8674H10.5996C10.5996 18.4674 9.73297 18.9341 8.66633 18.9341C7.5997 18.9341 6.73306 18.4674 6.73306 17.8674H3.73315L4.19981 27.5338H13.1995L13.5995 17.8674Z" fill="#428BC1"/>
<path d="M17.8661 27.8003L12.7329 19.4006C11.933 18.0673 13.6663 17.2673 14.4662 18.534L19.5994 26.9337L17.8661 27.8003" fill="#428BC1"/>
<path d="M17.8661 27.8005C18.8661 29.3338 19.266 29.2671 19.7994 29.0671C20.266 28.8004 20.5993 28.5338 19.666 26.9338L17.8661 27.8005" fill="#FFDD67"/>
<path d="M0.866699 28.267L2.66664 18.8007C2.9333 17.3341 4.93324 17.6007 4.59992 19.134L2.79997 28.5337L0.866699 28.267" fill="#428BC1"/>
<path d="M0.866645 28.2671C0.533322 30.0004 0.933309 30.2004 1.46663 30.267C1.99994 30.4004 2.46659 30.3337 2.79992 28.5337L0.866645 28.2671" fill="#FFDD67"/>
<path d="M20.9993 27.9338C19.9994 29.4671 19.5994 29.4004 19.0661 29.2004C18.5994 28.9337 18.2661 28.6671 19.1994 27.0671L20.9993 27.9338" fill="#FFDD67"/>
<path d="M0.466675 8.53431L1.33331 10.1343H15.9995L16.6662 8.46765C16.6662 2.5345 15.2662 0.00124853 8.79975 0.00124853C2.13329 -0.065416 0.466675 2.5345 0.466675 8.53431Z" fill="#FFB300"/>
<path d="M15.9995 8.46766C15.9328 8.80098 15.8662 9.13431 15.7995 9.26764C15.5995 9.60096 15.2662 9.80095 15.2662 9.80095C15.2662 9.80095 15.3329 9.13431 15.3329 8.26767C14.9329 2.80117 14.6662 5.40109 8.66639 5.40109C2.66658 5.40109 2.33326 2.80117 1.99994 8.26767C1.93327 9.13431 2.0666 9.80095 2.0666 9.80095C2.0666 9.80095 1.73328 9.66762 1.53329 9.26764C1.46662 9.13431 1.39996 8.73432 1.33329 8.46766C0.73331 8.33433 0 8.46766 0 10.0676C0 11.0676 0.399988 11.9342 1.59995 12.0009C2.0666 15.4008 6.59979 17.6674 8.59973 17.6674C10.6663 17.6674 15.1995 15.4008 15.5995 12.0009C16.8661 11.8676 17.1995 11.0676 17.1995 10.0676C17.3328 8.46766 16.5995 8.33433 15.9995 8.46766" fill="#FFDD67"/>
<path d="M6.86651 10.2676C6.86651 11.0009 6.33319 11.5342 5.59988 11.5342C4.93323 11.5342 4.33325 11.0009 4.33325 10.2676C4.33325 9.53429 4.86657 9.00098 5.59988 9.00098C6.33319 9.00098 6.86651 9.53429 6.86651 10.2676ZM12.9996 10.2676C12.9996 11.0009 12.4663 11.5342 11.733 11.5342C11.0664 11.5342 10.4664 11.0009 10.4664 10.2676C10.4664 9.53429 10.9997 9.00098 11.733 9.00098C12.3997 9.00098 12.9996 9.53429 12.9996 10.2676ZM10.6664 14.0675C9.39976 15.0675 7.93314 15.0675 6.66651 14.0675C6.53318 13.9342 6.39985 14.1341 6.46652 14.3341C6.86651 15.0675 7.66648 15.6674 8.66645 15.6674C9.66642 15.6674 10.4664 15.0675 10.8664 14.3341C10.933 14.1341 10.7997 13.9342 10.6664 14.0675Z" fill="#937237"/>
</svg>
