<svg width="32" height="61" viewBox="0 0 32 61" fill="none" xmlns="http://www.w3.org/2000/svg">
<path d="M10.1 24.5019H15.9V29.0019H10.1V24.5019Z" fill="#FFDD67"/>
<path d="M6.20001 41.3019V58.5019H11.5C11.5 47.0019 12.4 45.5019 12.4 45.5019H13.5C13.5 45.5019 14.4 47.0019 14.4 58.5019H19.7V41.3019H6.20001Z" fill="#231F20"/>
<path d="M14.4 57.9019C15.3 56.8019 18.8 56.8019 19.7 57.9019V60.0019H14.4V57.9019ZM11.6 57.9019C10.7 56.8019 7.19998 56.8019 6.29998 57.9019V60.0019H11.7C11.6 60.0019 11.6 57.9019 11.6 57.9019ZM20.4 26.8019H15.9C15.9 27.7019 14.6 28.4019 13 28.4019C11.4 28.4019 10.1 27.7019 10.1 26.8019H5.59998L6.29998 41.3019H19.8L20.4 26.8019Z" fill="#428BC1"/>
<path d="M26.8 41.7019L19.1 29.1019C17.9 27.1019 20.5 25.9019 21.7 27.8019L29.4 40.4019L26.8 41.7019" fill="#428BC1"/>
<path d="M26.8 41.7019C28.3 44.0019 28.9 43.9019 29.7 43.6019C30.4 43.2019 30.9 42.8019 29.5 40.4019L26.8 41.7019" fill="#FFDD67"/>
<path d="M1.29999 42.4019L3.99999 28.2019C4.39999 26.0019 7.39999 26.4019 6.89999 28.7019L4.19999 42.8019L1.29999 42.4019" fill="#428BC1"/>
<path d="M1.29997 42.4019C0.799973 45.0019 1.39997 45.3019 2.19997 45.4019C2.99997 45.6019 3.69997 45.5019 4.19997 42.8019L1.29997 42.4019" fill="#FFDD67"/>
<path d="M31.5 41.9019C30 44.2019 29.4 44.1019 28.6 43.8019C27.9 43.4019 27.4 43.0019 28.8 40.6019L31.5 41.9019" fill="#FFDD67"/>
<path d="M0.700012 12.8019L2.00001 15.2019H24L25 12.7019C25 3.80187 22.9 0.00187286 13.2 0.00187286C3.20001 -0.0981271 0.700012 3.80187 0.700012 12.8019Z" fill="#FFB300"/>
<path d="M24 12.7019C23.9 13.2019 23.8 13.7019 23.7 13.9019C23.4 14.4019 22.9 14.7019 22.9 14.7019C22.9 14.7019 23 13.7019 23 12.4019C22.4 4.20191 22 8.10191 13 8.10191C4 8.10191 3.5 4.20191 3 12.4019C2.9 13.7019 3.1 14.7019 3.1 14.7019C3.1 14.7019 2.6 14.5019 2.3 13.9019C2.2 13.7019 2.1 13.1019 2 12.7019C1.1 12.5019 0 12.7019 0 15.1019C0 16.6019 0.6 17.9019 2.4 18.0019C3.1 23.1019 9.9 26.5019 12.9 26.5019C16 26.5019 22.8 23.1019 23.4 18.0019C25.3 17.8019 25.8 16.6019 25.8 15.1019C26 12.7019 24.9 12.5019 24 12.7019" fill="#FFDD67"/>
<path d="M10.3 15.4019C10.3 16.5019 9.5 17.3019 8.4 17.3019C7.4 17.3019 6.5 16.5019 6.5 15.4019C6.5 14.3019 7.3 13.5019 8.4 13.5019C9.5 13.5019 10.3 14.3019 10.3 15.4019ZM19.5 15.4019C19.5 16.5019 18.7 17.3019 17.6 17.3019C16.6 17.3019 15.7 16.5019 15.7 15.4019C15.7 14.3019 16.5 13.5019 17.6 13.5019C18.6 13.5019 19.5 14.3019 19.5 15.4019ZM16 21.1019C14.1 22.6019 11.9 22.6019 10 21.1019C9.8 20.9019 9.6 21.2019 9.7 21.5019C10.3 22.6019 11.5 23.5019 13 23.5019C14.5 23.5019 15.7 22.6019 16.3 21.5019C16.4 21.2019 16.2 20.9019 16 21.1019Z" fill="#937237"/>
</svg>
