<svg width="11" height="20" viewBox="0 0 11 20" fill="none" xmlns="http://www.w3.org/2000/svg">
<path d="M3.36658 8.16705H5.29985V9.66701H3.36658V8.16705Z" fill="#FFDD67"/>
<path d="M2.06665 13.7668V19.5H3.83326C3.83326 15.6668 4.13325 15.1668 4.13325 15.1668H4.49991C4.49991 15.1668 4.7999 15.6668 4.7999 19.5H6.56651V13.7668H2.06665Z" fill="#231F20"/>
<path d="M4.79982 19.3001C5.09981 18.9334 6.26644 18.9334 6.56643 19.3001V20H4.79982V19.3001ZM3.86651 19.3001C3.56652 18.9334 2.39989 18.9334 2.0999 19.3001V20H3.89985C3.86651 20 3.86651 19.3001 3.86651 19.3001ZM6.79976 8.93372H5.2998C5.2998 9.23371 4.86648 9.46703 4.33317 9.46703C3.79985 9.46703 3.36653 9.23371 3.36653 8.93372H1.86658L2.0999 13.7669H6.59976L6.79976 8.93372Z" fill="#428BC1"/>
<path d="M8.93306 13.9002L6.36647 9.7003C5.96649 9.03365 6.83313 8.63366 7.23311 9.26698L9.7997 13.4668L8.93306 13.9002" fill="#428BC1"/>
<path d="M8.93304 13.9002C9.43303 14.6669 9.63302 14.6335 9.89968 14.5336C10.133 14.4002 10.2997 14.2669 9.83302 13.4669L8.93304 13.9002" fill="#FFDD67"/>
<path d="M0.43335 14.1335L1.33332 9.40034C1.46665 8.66703 2.46662 8.80035 2.29996 9.567L1.39999 14.2668L0.43335 14.1335" fill="#428BC1"/>
<path d="M0.433322 14.1335C0.266661 15.0002 0.466654 15.1002 0.733313 15.1335C0.999971 15.2002 1.2333 15.1668 1.39996 14.2669L0.433322 14.1335" fill="#FFDD67"/>
<path d="M10.4997 13.9669C9.99968 14.7335 9.79968 14.7002 9.53303 14.6002C9.2997 14.4669 9.13304 14.3335 9.59969 13.5336L10.4997 13.9669" fill="#FFDD67"/>
<path d="M0.233337 4.26716L0.666657 5.06713H7.99976L8.33308 4.23382C8.33308 1.26725 7.63311 0.000624266 4.39987 0.000624266C1.06664 -0.032708 0.233337 1.26725 0.233337 4.26716Z" fill="#FFB300"/>
<path d="M7.99975 4.23383C7.96642 4.40049 7.93308 4.56715 7.89975 4.63382C7.79976 4.80048 7.63309 4.90048 7.63309 4.90048C7.63309 4.90048 7.66643 4.56715 7.66643 4.13383C7.46643 1.40059 7.3331 2.70055 4.3332 2.70055C1.33329 2.70055 1.16663 1.40059 0.999969 4.13383C0.966636 4.56715 1.0333 4.90048 1.0333 4.90048C1.0333 4.90048 0.86664 4.83381 0.766643 4.63382C0.73331 4.56715 0.699978 4.36716 0.666646 4.23383C0.366655 4.16717 0 4.23383 0 5.03381C0 5.53379 0.199994 5.96711 0.799975 6.00044C1.0333 7.70039 3.2999 8.83369 4.29987 8.83369C5.33317 8.83369 7.59976 7.70039 7.79976 6.00044C8.43307 5.93378 8.59973 5.53379 8.59973 5.03381C8.66639 4.23383 8.29974 4.16717 7.99975 4.23383" fill="#FFDD67"/>
<path d="M3.43325 5.1338C3.43325 5.50046 3.16659 5.76711 2.79994 5.76711C2.46662 5.76711 2.16663 5.50046 2.16663 5.1338C2.16663 4.76715 2.43328 4.50049 2.79994 4.50049C3.16659 4.50049 3.43325 4.76715 3.43325 5.1338ZM6.49982 5.1338C6.49982 5.50046 6.23317 5.76711 5.86651 5.76711C5.53319 5.76711 5.2332 5.50046 5.2332 5.1338C5.2332 4.76715 5.49985 4.50049 5.86651 4.50049C6.19983 4.50049 6.49982 4.76715 6.49982 5.1338ZM5.33319 7.03374C4.69988 7.53373 3.96657 7.53373 3.33326 7.03374C3.26659 6.96708 3.19993 7.06707 3.23326 7.16707C3.43325 7.53373 3.83324 7.83372 4.33322 7.83372C4.83321 7.83372 5.2332 7.53373 5.43319 7.16707C5.46652 7.06707 5.39986 6.96708 5.33319 7.03374Z" fill="#937237"/>
</svg>
