<svg width="24" height="24" viewBox="0 0 24 24" fill="none" xmlns="http://www.w3.org/2000/svg">
<path d="M11.753 1C12.911 1 13.864 1.875 13.987 2.99999H15.75C16.3201 2.99992 16.869 3.21629 17.2857 3.60536C17.7024 3.99443 17.9559 4.5272 17.995 5.09599L18 5.24999V10.174C17.5084 10.0581 17.005 9.99968 16.5 9.99997V5.24999C16.4999 5.06875 16.4343 4.89365 16.3152 4.75706C16.1961 4.62047 16.0315 4.53164 15.852 4.50699L15.75 4.49999H13.618C13.4125 4.80591 13.1349 5.05654 12.8097 5.22972C12.4844 5.40291 12.1215 5.49332 11.753 5.49299H8.24698C7.87857 5.49343 7.51572 5.40317 7.19046 5.23016C6.8652 5.05716 6.58753 4.80673 6.38199 4.50099L4.24999 4.49999C4.06876 4.5 3.89365 4.56563 3.75706 4.68476C3.62048 4.80388 3.53164 4.96843 3.507 5.14799L3.5 5.24999V18.7549C3.5 19.1349 3.78199 19.4479 4.14799 19.4979L4.24999 19.5049H10.735C11.0216 20.0536 11.3849 20.5587 11.814 21.0049H4.24999C3.67987 21.005 3.13098 20.7886 2.71424 20.3996C2.29751 20.0105 2.04402 19.4777 2.005 18.9089L2 18.7549V5.24999C1.99993 4.67986 2.21629 4.13097 2.60537 3.71424C2.99444 3.29751 3.52721 3.04402 4.09599 3.00499L4.24999 2.99999H6.01299C6.07381 2.45007 6.33538 1.94191 6.7476 1.57287C7.15982 1.20383 7.6937 0.999848 8.24698 1H11.753ZM11.753 2.5H8.24698C8.05373 2.50707 7.87075 2.58882 7.73653 2.72804C7.60231 2.86726 7.52731 3.05311 7.52731 3.24649C7.52731 3.43988 7.60231 3.62573 7.73653 3.76495C7.87075 3.90417 8.05373 3.98592 8.24698 3.99299H11.753C11.8533 3.99666 11.9533 3.98007 12.0471 3.94421C12.1409 3.90835 12.2265 3.85396 12.2988 3.78428C12.371 3.71459 12.4285 3.63106 12.4678 3.53866C12.5071 3.44626 12.5273 3.34689 12.5273 3.24649C12.5273 3.1461 12.5071 3.04673 12.4678 2.95433C12.4285 2.86193 12.371 2.77839 12.2988 2.70871C12.2265 2.63903 12.1409 2.58463 12.0471 2.54877C11.9533 2.51291 11.8533 2.49632 11.753 2.5V2.5ZM7.24998 12.995H11.025C10.7249 13.4624 10.4863 13.9666 10.315 14.495H7.49998V14.743C7.49998 15.57 8.19498 15.999 9.99998 15.999H10.019C9.98078 16.4995 9.99991 17.0028 10.076 17.4989H9.99998C7.47198 17.4989 5.99999 16.59 5.99999 14.743V14.245C5.99999 13.555 6.55999 12.995 7.24998 12.995ZM9.99998 6.99498C10.663 6.99498 11.2989 7.25837 11.7677 7.72721C12.2366 8.19605 12.5 8.83193 12.5 9.49497C12.5 10.158 12.2366 10.7939 11.7677 11.2627C11.2989 11.7316 10.663 11.995 9.99998 11.995C9.33694 11.995 8.70105 11.7316 8.23221 11.2627C7.76337 10.7939 7.49998 10.158 7.49998 9.49497C7.49998 8.83193 7.76337 8.19605 8.23221 7.72721C8.70105 7.25837 9.33694 6.99498 9.99998 6.99498V6.99498ZM9.99998 8.49498C9.73476 8.49498 9.48041 8.60033 9.29287 8.78787C9.10534 8.9754 8.99998 9.22976 8.99998 9.49497C8.99998 9.76019 9.10534 10.0145 9.29287 10.2021C9.48041 10.3896 9.73476 10.495 9.99998 10.495C10.2652 10.495 10.5195 10.3896 10.7071 10.2021C10.8946 10.0145 11 9.76019 11 9.49497C11 9.22976 10.8946 8.9754 10.7071 8.78787C10.5195 8.60033 10.2652 8.49498 9.99998 8.49498ZM21.9999 16.5C21.9999 15.0413 21.4205 13.6423 20.389 12.6109C19.3576 11.5794 17.9586 11 16.5 11C15.0413 11 13.6423 11.5794 12.6109 12.6109C11.5794 13.6423 11 15.0413 11 16.5C11 17.9586 11.5794 19.3576 12.6109 20.389C13.6423 21.4205 15.0413 21.9999 16.5 21.9999C17.9586 21.9999 19.3576 21.4205 20.389 20.389C21.4205 19.3576 21.9999 17.9586 21.9999 16.5ZM17 17L17.001 19.5029C17.001 19.6356 16.9483 19.7627 16.8545 19.8565C16.7607 19.9503 16.6336 20.0029 16.501 20.0029C16.3683 20.0029 16.2412 19.9503 16.1474 19.8565C16.0536 19.7627 16.001 19.6356 16.001 19.5029V17H13.496C13.3634 17 13.2362 16.9473 13.1424 16.8535C13.0486 16.7597 12.996 16.6326 12.996 16.5C12.996 16.3673 13.0486 16.2402 13.1424 16.1464C13.2362 16.0526 13.3634 16 13.496 16H16V13.5C16 13.3674 16.0526 13.2402 16.1464 13.1464C16.2402 13.0526 16.3673 13 16.5 13C16.6326 13 16.7597 13.0526 16.8535 13.1464C16.9473 13.2402 17 13.3674 17 13.5V16H19.5029C19.6356 16 19.7627 16.0526 19.8565 16.1464C19.9503 16.2402 20.0029 16.3673 20.0029 16.5C20.0029 16.6326 19.9503 16.7597 19.8565 16.8535C19.7627 16.9473 19.6356 17 19.5029 17H17.001H17Z" fill="#718096"/>
</svg>
