<svg width="16" height="16" viewBox="0 0 16 16" fill="none" xmlns="http://www.w3.org/2000/svg">
<path d="M7.50198 1C8.27398 1 8.90931 1.58333 8.99131 2.33333H10.1666C10.5467 2.33328 10.9127 2.47753 11.1905 2.73691C11.4683 2.99629 11.6373 3.35147 11.6633 3.73066L11.6666 3.83332V7.11598C11.3389 7.03871 11.0033 6.99979 10.6666 6.99998V3.83332C10.6666 3.7125 10.6229 3.59576 10.5435 3.50471C10.464 3.41365 10.3543 3.35442 10.2346 3.33799L10.1666 3.33333H8.74531C8.60835 3.53728 8.42328 3.70436 8.20643 3.81981C7.98959 3.93527 7.74765 3.99555 7.50198 3.99532H5.16465C4.91905 3.99562 4.67715 3.93545 4.4603 3.82011C4.24346 3.70477 4.05836 3.53782 3.92132 3.33399L2.5 3.33333C2.37917 3.33333 2.26243 3.37709 2.17138 3.4565C2.08032 3.53592 2.0211 3.64562 2.00466 3.76532L2 3.83332V12.8366C2 13.09 2.188 13.2986 2.432 13.332L2.5 13.3366H6.82332C7.0144 13.7024 7.25661 14.0391 7.54265 14.3366H2.5C2.11991 14.3367 1.75398 14.1924 1.47616 13.933C1.19834 13.6737 1.02935 13.3185 1.00333 12.9393L1 12.8366V3.83332C0.999953 3.45324 1.1442 3.08731 1.40358 2.80949C1.66296 2.53167 2.01814 2.36268 2.39733 2.33666L2.5 2.33333H3.67533C3.71587 1.96671 3.89025 1.62794 4.16507 1.38191C4.43988 1.13589 4.7958 0.999899 5.16465 1H7.50198ZM7.50198 2H5.16465C5.03582 2.00471 4.91383 2.05921 4.82435 2.15202C4.73487 2.24484 4.68487 2.36874 4.68487 2.49766C4.68487 2.62659 4.73487 2.75048 4.82435 2.8433C4.91383 2.93611 5.03582 2.99061 5.16465 2.99533H7.50198C7.56887 2.99778 7.63556 2.98672 7.69808 2.96281C7.76059 2.9389 7.81765 2.90264 7.86584 2.85618C7.91402 2.80973 7.95235 2.75404 7.97853 2.69244C8.0047 2.63084 8.0182 2.56459 8.0182 2.49766C8.0182 2.43073 8.0047 2.36449 7.97853 2.30289C7.95235 2.24129 7.91402 2.1856 7.86584 2.13914C7.81765 2.09269 7.76059 2.05642 7.69808 2.03252C7.63556 2.00861 7.56887 1.99755 7.50198 2V2ZM4.49999 8.99664H7.01665C6.81661 9.30828 6.65753 9.64438 6.54332 9.99664H4.66666V10.162C4.66666 10.7133 5.12999 10.9993 6.33332 10.9993H6.34598C6.32052 11.333 6.33327 11.6685 6.38398 11.9993H6.33332C4.64799 11.9993 3.66666 11.3933 3.66666 10.162V9.82997C3.66666 9.36997 4.03999 8.99664 4.49999 8.99664ZM6.33332 4.99665C6.77534 4.99665 7.19927 5.17225 7.51183 5.48481C7.82438 5.79737 7.99998 6.22129 7.99998 6.66332C7.99998 7.10534 7.82438 7.52926 7.51183 7.84182C7.19927 8.15438 6.77534 8.32998 6.33332 8.32998C5.89129 8.32998 5.46737 8.15438 5.15481 7.84182C4.84225 7.52926 4.66666 7.10534 4.66666 6.66332C4.66666 6.22129 4.84225 5.79737 5.15481 5.48481C5.46737 5.17225 5.89129 4.99665 6.33332 4.99665V4.99665ZM6.33332 5.99665C6.15651 5.99665 5.98694 6.06689 5.86191 6.19191C5.73689 6.31694 5.66665 6.48651 5.66665 6.66332C5.66665 6.84013 5.73689 7.00969 5.86191 7.13472C5.98694 7.25974 6.15651 7.32998 6.33332 7.32998C6.51013 7.32998 6.6797 7.25974 6.80472 7.13472C6.92974 7.00969 6.99998 6.84013 6.99998 6.66332C6.99998 6.48651 6.92974 6.31694 6.80472 6.19191C6.6797 6.06689 6.51013 5.99665 6.33332 5.99665ZM14.3333 11.3333C14.3333 10.3608 13.947 9.42822 13.2594 8.74058C12.5717 8.05295 11.6391 7.66665 10.6666 7.66665C9.69418 7.66665 8.76155 8.05295 8.07392 8.74058C7.38629 9.42822 6.99998 10.3608 6.99998 11.3333C6.99998 12.3058 7.38629 13.2384 8.07392 13.926C8.76155 14.6136 9.69418 15 10.6666 15C11.6391 15 12.5717 14.6136 13.2594 13.926C13.947 13.2384 14.3333 12.3058 14.3333 11.3333ZM11 11.6666L11.0006 13.3353C11.0006 13.4237 10.9655 13.5085 10.903 13.571C10.8405 13.6335 10.7557 13.6686 10.6673 13.6686C10.5789 13.6686 10.4941 13.6335 10.4316 13.571C10.3691 13.5085 10.334 13.4237 10.334 13.3353V11.6666H8.66398C8.57557 11.6666 8.49079 11.6315 8.42828 11.569C8.36576 11.5065 8.33064 11.4217 8.33064 11.3333C8.33064 11.2449 8.36576 11.1601 8.42828 11.0976C8.49079 11.0351 8.57557 11 8.66398 11H10.3333V9.33331C10.3333 9.2449 10.3684 9.16012 10.4309 9.09761C10.4934 9.03509 10.5782 8.99998 10.6666 8.99998C10.755 8.99998 10.8398 9.03509 10.9023 9.09761C10.9649 9.16012 11 9.2449 11 9.33331V11H12.6686C12.757 11 12.8418 11.0351 12.9043 11.0976C12.9668 11.1601 13.002 11.2449 13.002 11.3333C13.002 11.4217 12.9668 11.5065 12.9043 11.569C12.8418 11.6315 12.757 11.6666 12.6686 11.6666H11.0006H11Z" fill="#718096"/>
</svg>
