<svg width="40" height="40" viewBox="0 0 40 40" fill="none" xmlns="http://www.w3.org/2000/svg">
<g clip-path="url(#clip0_33_96)">
<g clip-path="url(#clip1_33_96)">
<path d="M33.0297 33.8272C33.2678 33.1061 33.3571 32.3244 33.4338 31.5716C33.5209 30.7467 33.3312 29.4907 33.9393 28.8623C34.3256 28.4646 35.2646 28.4081 35.7632 28.1568C36.4025 27.8334 36.8797 27.1261 36.7316 26.39C35.928 22.3901 29.9078 25.3478 27.5098 24.6607C27.4451 24.6411 27.3784 24.6291 27.3109 24.625C27.1795 23.9632 26.0992 23.5516 25.5263 24.2751C24.4846 25.5813 25.5003 26.8742 26.429 27.8657C27.6447 29.1581 27.8164 30.53 28.0268 32.2293C28.1859 33.5067 28.4695 35.3663 29.7919 35.9744C31.4226 36.7221 32.5767 35.2083 33.0297 33.8295V33.8272ZM3.72777 4.54541C3.49085 5.26365 3.39977 6.04587 3.32311 6.80043C3.23722 7.623 3.42629 8.88193 2.8193 9.50794C2.43309 9.90568 1.49523 9.96218 0.994308 10.2129C0.356193 10.534 -0.122249 11.2436 0.0270482 11.9803C0.8306 15.9802 6.84859 13.0219 9.24772 13.7096C9.31689 13.7298 9.37972 13.7413 9.44774 13.7459C9.57744 14.4076 10.6577 14.8192 11.233 14.0981C12.2723 12.7896 11.2566 11.4966 10.328 10.5052C9.11341 9.21454 8.94278 7.83859 8.73008 6.14329C8.57098 4.86418 8.28853 3.0046 6.96503 2.39646C5.33429 1.65055 4.182 3.16254 3.72777 4.54368" fill="#DFAD92"/>
<path d="M27.8129 24.0757C28.2143 24.394 28.4737 24.8581 28.5346 25.3668C28.5955 25.8755 28.4529 26.3877 28.138 26.7918C27.8231 27.1959 27.3612 27.4592 26.853 27.5244C26.3449 27.5897 25.8315 27.4515 25.4247 27.14L9.35371 14.6089C9.1524 14.4521 8.98399 14.2572 8.85809 14.0353C8.7322 13.8134 8.6513 13.5689 8.62004 13.3157C8.58877 13.0625 8.60774 12.8056 8.67587 12.5597C8.744 12.3139 8.85994 12.0839 9.01707 11.8829C9.1737 11.6815 9.36852 11.5131 9.59037 11.3871C9.81222 11.2612 10.0567 11.1803 10.3099 11.149C10.5631 11.1178 10.8199 11.1367 11.0658 11.2049C11.3116 11.2731 11.5415 11.3891 11.7425 11.5462L27.8129 24.0757Z" fill="#DFAD92"/>
<path d="M33.2142 33.1264C32.7409 33.3708 32.1904 33.4158 31.5667 33.1287C30.2403 32.5252 29.9602 30.661 29.7999 29.3865C29.5878 27.6894 29.4154 26.3152 28.2003 25.0229C28.1185 24.93 28.0343 24.8401 27.949 24.7467C27.8007 24.7308 27.654 24.7026 27.5103 24.6626C27.4453 24.6409 27.3776 24.6281 27.3091 24.6245C27.176 23.9628 26.0998 23.5535 25.5268 24.2746C24.4852 25.5831 25.4986 26.8784 26.4272 27.8653C27.6429 29.1599 27.8147 30.5295 28.0274 32.2289C28.1865 33.5063 28.4678 35.3681 29.7924 35.974C31.4214 36.7239 32.5743 35.2102 33.0251 33.8314C33.1012 33.6014 33.1623 33.3685 33.2142 33.1264ZM3.54443 5.2413C4.01884 4.9992 4.56818 4.95424 5.19189 5.239C6.51827 5.84714 6.79841 7.70903 6.95866 8.98583C7.17137 10.6829 7.33969 12.0548 8.55885 13.3471C8.64013 13.44 8.72486 13.5305 8.8096 13.6233C8.96581 13.6411 9.11223 13.6688 9.24711 13.7091C9.31859 13.727 9.38027 13.7409 9.44714 13.7478C9.5826 14.4078 10.6605 14.8165 11.2324 14.0959C12.2717 12.7874 11.2594 11.4945 10.3297 10.5053C9.11396 9.21237 8.94218 7.84045 8.72947 6.14112C8.57038 4.86431 8.29023 3.00473 6.96558 2.39659C5.33484 1.64838 4.1837 3.16037 3.72947 4.54093C3.65569 4.7669 3.59574 5.00151 3.54443 5.2413Z" fill="#C99D87"/>
<path d="M29.3394 12.4184C28.3837 11.842 27.9992 12.1786 26.9155 11.8651C25.0681 11.3296 24.2593 12.2536 22.7721 11.1353C22.1127 10.6424 21.5564 6.93078 20.9391 7.1406C20.6387 5.72487 18.1185 5.30004 16.4711 6.28978C11.2947 9.40253 9.01893 14.1771 6.54891 19.4763C5.77475 21.1393 6.79966 22.3216 8.12546 22.5712C8.33067 23.1102 8.78087 23.5471 9.55156 23.7425C9.71296 23.7835 9.88128 23.7927 10.0461 23.8198C10.0992 23.8786 10.2024 23.9529 10.3718 24.048C10.6474 24.2746 12.1594 24.2948 12.4055 24.557C13.0338 25.1761 13.748 25.9975 14.0328 26.8345C14.8283 29.1852 15.2352 29.1576 16.6227 30.1121C19.8865 32.3424 22.8275 30.9168 25.1338 27.7096C25.633 27.0196 26.2019 26.2996 26.7876 25.5583C27.1057 25.1913 27.4049 24.8082 27.6839 24.4106C29.3394 22.2582 30.9189 19.9271 31.2163 17.4934C31.4371 15.6419 30.965 13.3955 29.3394 12.419" fill="#977650"/>
<path d="M12.2089 19.1581C10.754 17.7049 9.73655 15.9623 9.21718 14.1408C8.26548 15.8223 7.42043 17.6167 6.55116 19.4763C5.77701 21.1393 6.80191 22.3216 8.12772 22.5712C8.33293 23.1102 8.78312 23.5471 9.55382 23.7425C9.71522 23.7834 9.88354 23.7926 10.0484 23.8197C10.1014 23.8785 10.2046 23.9529 10.3741 24.048C10.6496 24.2745 12.1616 24.2947 12.4078 24.557C13.0361 25.1761 13.7503 25.9975 14.035 26.8345C14.8305 29.1852 15.2375 29.1575 16.625 30.1121C19.3584 31.9809 21.8648 31.2765 23.9641 29.1132C19.6599 27.0881 16.0791 23.0294 12.2089 19.1581" fill="#8A6D4E"/>
<path d="M24.239 10.4141C24.2275 10.4072 24.2073 10.4072 24.1929 10.4026C24.0944 10.251 23.4101 10.2602 23.2239 10.387C18.6274 13.4785 13.2735 18.6992 11.9379 24.3137C11.6849 24.3794 11.4837 24.5103 11.5719 24.6596C11.6941 24.8637 11.8122 25.0689 11.9333 25.2741C12.0935 25.5433 12.8158 25.3334 12.9899 25.1818C14.5843 23.7719 15.1089 21.1773 16.2024 19.3714C18.0378 16.341 20.6611 13.837 23.5369 11.8028C23.8004 11.9071 24.3636 11.7324 24.4875 11.6241C24.6172 11.5071 24.8028 10.7456 24.239 10.4153" fill="#5F4E3D"/>
</g>
<path d="M25.7394 22.942C25.7394 22.942 11.8065 24.3579 11.8636 25.7262C11.9089 26.8208 11.6019 30.5664 14.7383 34.3976C16.7943 36.9082 20.397 39.3283 26.2867 39.3283C32.0787 39.3283 35.2603 36.6535 37.2426 33.7599C39.7888 30.0381 39.6627 26.5472 39.6627 25.681C39.6603 23.9462 28.7972 22.2591 25.7394 22.942V22.942Z" fill="#D5D5D5"/>
<path d="M26.4603 19.8199C26.4603 19.8199 25.5204 19.2035 24.6613 19.2821C23.8023 19.363 23.4001 19.8722 23.4001 19.8722L20.7087 26.5685L23.5715 29.762L25.4395 31.0565L29.0542 30.9661L30.6509 19.8508L26.4603 19.8199V19.8199Z" fill="#307D31"/>
<path d="M26.6412 21.4547C26.6412 21.4547 25.9868 20.353 25.9083 19.4106C25.8297 18.4683 26.5674 17.9257 26.9601 17.9257C27.9214 17.9257 28.0309 18.5206 28.6068 18.4683C29.1827 18.4159 29.3683 17.9067 29.5229 17.1309C29.68 16.3409 30.3582 15.8959 30.9745 16.2885C31.5671 16.6669 31.3577 17.7853 31.3577 17.7853C31.3577 17.7853 31.8288 17.2094 32.3547 17.6283C32.8211 18.0019 32.6688 19.1489 32.6688 19.1489C32.6688 19.1489 33.6921 17.9685 34.5559 18.5468C35.4197 19.1251 34.7653 21.1144 34.7653 21.1144L34.4774 22.8968L29.5515 21.0097C29.5515 21.0097 29.2636 20.3292 28.2141 20.4077C27.1671 20.4862 26.6412 21.4547 26.6412 21.4547V21.4547ZM21.375 26.1736C21.375 26.1736 22.2555 24.3865 24.1711 24.9837C26.1795 25.6096 25.8155 27.5442 25.8155 27.5442C25.8155 27.5442 26.3295 27.1683 26.9315 27.1159C27.5336 27.0636 28.2689 27.1683 28.2689 27.1683L28.1737 26.1307C28.1737 26.1307 26.8958 26.2997 26.1201 25.3859C25.0778 24.1556 25.7798 22.7397 25.7798 22.7397L25.963 21.8497L24.1283 20.6694L22.8695 19.0441C22.8695 19.0441 22.4506 18.128 21.3227 18.0756C20.1947 18.0233 19.6641 18.8181 19.6641 18.8181C19.6641 18.8181 17.2487 18.1208 16.0161 19.1679C15.1832 19.877 15.3997 21.0383 15.3997 21.0383C15.3997 21.0383 14.8144 21.3857 13.803 20.5362C13.3533 20.1578 12.4728 20.4458 12.3419 21.1549C12.211 21.8616 12.4918 22.7445 12.4918 22.7445L11.6804 23.2418L14.4312 26.0712L21.375 26.1736V26.1736Z" fill="#58A12F"/>
<path d="M27.4813 25.5429C27.4813 25.5429 26.3653 25.6071 25.5157 23.6296C25.0065 22.4446 25.3634 20.1458 26.5652 20.379C27.5075 20.5623 27.3766 22.1614 28.0334 22.2923C28.3594 22.3565 29.0828 20.6408 30.6272 20.5361C31.8837 20.4504 33.5351 22.109 33.5351 22.109C33.5351 22.109 34.2681 21.5855 34.3466 21.4023C34.4251 21.219 34.556 20.5123 35.3699 20.5646C36.2717 20.6218 36.1551 21.6141 36.1551 21.6141C36.1551 21.6141 37.2307 21.1953 38.016 21.5879C38.8608 22.0115 38.8013 22.8206 38.8013 22.8206C38.8013 22.8206 39.5604 22.0091 40.1648 22.4279C40.7693 22.8467 39.0654 26.1901 37.4401 27.8678C35.8149 29.5454 33.7112 29.4336 33.7112 29.4336L27.4813 25.5429Z" fill="#86C82C"/>
<path d="M17.1844 20.1602L16.9869 19.7771C16.9869 19.7771 17.589 18.9989 18.9311 19.2131C20.4041 19.4487 20.5516 20.4743 20.5516 20.4743C20.5516 20.4743 19.7925 20.7622 19.7687 20.7265C19.7449 20.6908 19.0334 19.9436 19.0334 19.9436L17.6247 19.9912L17.1844 20.1602V20.1602Z" fill="#D2608C"/>
<path d="M17.3248 20.4505C17.3248 20.4505 18.0102 20.1268 18.6836 20.272C19.3571 20.4172 19.5141 20.9573 19.5141 20.9573L20.14 20.7051C20.14 20.7051 19.7449 19.8579 18.8145 19.6938C17.7936 19.5129 17.1654 20.1292 17.1654 20.1292L17.3248 20.4505V20.4505Z" fill="white"/>
<path d="M17.1036 21.4356C17.1036 21.4356 19.2929 20.8145 20.1305 20.4005C21.4727 19.7366 22.6387 19.1393 22.979 18.9108C23.1598 18.7895 23.286 18.6515 23.5287 18.7014C23.7714 18.7514 25.9535 23.0919 22.396 24.672C20.9563 25.3121 19.4095 25.5286 19.4095 25.5286L17.1869 23.6511L17.1036 21.4356V21.4356Z" fill="#FE2A19"/>
<path d="M17.8626 22.0663C17.8103 22.2209 18.9811 24.4507 21.4392 23.5393C23.7523 22.6826 22.9932 19.946 22.848 19.8484C22.7528 19.7866 21.6558 20.3934 20.4707 20.9216C19.2333 21.4713 17.9055 21.9425 17.8626 22.0663V22.0663Z" fill="#CB1C35"/>
<path d="M19.6189 22.5018C20.0235 22.6612 20.5589 22.4946 21.0991 22.2614C21.5964 22.0473 22.2104 21.7141 22.227 21.3548C22.2437 20.9978 21.3704 20.5981 21.1419 20.6052C20.9158 20.6147 19.8974 21.0621 19.7617 21.2786C19.6261 21.4976 19.3239 22.3852 19.6189 22.5018Z" fill="#FF5F5D"/>
<path d="M19.3452 22.4922C19.1168 22.4327 18.9074 22.6588 18.8502 22.9229C18.7765 23.268 19.1096 23.3418 19.2619 23.2156C19.4975 23.0205 19.5618 22.547 19.3452 22.4922ZM20.5731 22.6778C20.347 22.685 20.2614 23.0467 20.3399 23.3061C20.4398 23.6464 20.7801 23.5559 20.8396 23.3679C20.9491 23.0348 20.7968 22.6707 20.5731 22.6778V22.6778ZM21.7939 22.0758C21.6297 22.2209 21.7891 22.5446 22.008 22.6897C22.2936 22.8801 22.4911 22.6041 22.4197 22.4256C22.2936 22.1091 21.9557 21.933 21.7939 22.0758V22.0758ZM22.2317 21.0383C22.2436 21.2501 22.5791 21.3357 22.8147 21.2667C23.1241 21.1763 23.0313 20.855 22.8576 20.7955C22.5482 20.6885 22.2198 20.8289 22.2317 21.0383V21.0383Z" fill="#F7CA76"/>
<path d="M21.9058 26.6304C22.1224 26.045 23.2574 25.1074 24.4568 25.9713C25.6252 26.8136 25.0898 28.1986 24.59 28.6531C24.0475 29.1481 22.9671 29.2932 22.3603 28.6222C21.7535 27.9511 21.6155 27.4133 21.9058 26.6304V26.6304Z" fill="#E9FCAE"/>
<path d="M14.9001 27.4371C14.962 27.361 15.1166 27.1659 15.0215 26.8232C14.862 26.2497 14.4575 25.5429 13.6841 24.6315C12.3348 23.0419 11.6662 22.6279 11.2378 23.08C10.7833 23.5607 11.4258 24.6839 12.2801 25.7143C13.1344 26.7447 14.5122 27.9178 14.9001 27.4371V27.4371Z" fill="#307D31"/>
<path d="M14.4456 26.4614C14.3147 26.5685 13.6032 26.0735 12.8679 25.2049C12.1326 24.3364 11.5924 23.6058 11.8256 23.4273C12.1207 23.2013 13.1891 24.3221 13.4699 24.71C13.7507 25.0979 14.7383 26.2211 14.4456 26.4614V26.4614Z" fill="#E9FCAE"/>
<path d="M29.8965 21.9282L30.2986 21.5403C30.2986 21.5403 31.6003 23.2703 32.6236 22.5017C33.8538 21.5784 32.6378 20.0816 32.6378 20.0816L33.1733 19.8151L33.8824 20.9121L33.9347 22.4636L32.7187 23.5202C32.7187 23.5202 31.3814 23.5202 31.2743 23.3607C31.1672 23.1989 29.8965 21.9282 29.8965 21.9282V21.9282Z" fill="white"/>
<path d="M29.4825 22.2899L30.0131 21.8188C30.0131 21.8188 31.5147 23.9485 33.0139 22.842C34.4512 21.7783 33.1305 19.8389 33.1305 19.8389L33.6611 19.5272C33.6611 19.5272 34.7129 20.7146 34.2965 22.2685C33.961 23.5154 32.7164 24.0985 31.7003 23.8843C30.106 23.5464 29.4825 22.2899 29.4825 22.2899Z" fill="#D2608C"/>
<path d="M31.7003 25.029C31.7003 25.029 31.7432 24.039 33.1281 22.9349C34.5131 21.8307 35.6767 22.1329 36.0646 22.4637C36.4549 22.7969 36.9189 24.02 35.8647 25.3478C35.3602 25.9808 34.97 26.0713 34.4203 26.0213C33.7778 25.9618 32.6617 25.405 32.6617 25.405L31.7003 25.029V25.029Z" fill="#2C7B2E"/>
<path d="M35.5388 22.904C34.9605 22.5209 33.7683 23.1277 33.1543 23.7012C32.4999 24.3152 32.3191 25.01 32.3191 25.01L33.7493 25.5145C33.7493 25.5145 34.5536 25.4955 35.0914 24.8815C35.8933 23.9677 35.9718 23.192 35.5388 22.904Z" fill="#E0FEAC"/>
<path d="M27.7762 23.4226C27.5763 23.5226 26.8291 24.3983 27.0504 26.1402C27.2813 27.9416 28.5687 29.1266 30.7008 29.2813C33.4303 29.4765 34.9652 27.4776 35.1746 27.1158C35.384 26.7541 35.8028 25.9593 35.5101 25.6952C35.2174 25.4311 33.3922 25.3192 31.2886 24.6648C28.9256 23.9271 28.2212 23.1989 27.7762 23.4226Z" fill="#FE2A19"/>
<path d="M28.7211 24.4364C28.4236 24.5839 28.1309 27.2277 30.4654 28.0011C32.4762 28.6674 33.9706 26.4543 33.8183 26.1593C33.666 25.8642 32.7594 25.9641 31.2626 25.4335C29.7634 24.9004 28.9543 24.3222 28.7211 24.4364Z" fill="#CB1C35"/>
<path d="M29.7396 25.8404C29.8086 26.1903 30.1346 26.6162 30.8747 26.9327C31.4624 27.1849 32.093 27.0731 32.3596 26.9613C32.6261 26.8494 32.5238 25.7881 32.4024 25.7572C32.024 25.6596 30.877 25.2669 30.5272 25.1265C30.3012 25.0361 29.6658 25.4645 29.7396 25.8404Z" fill="#FE6261"/>
<path d="M29.6063 25.8666C29.5944 25.6476 29.2398 25.5739 28.9923 25.6548C28.6663 25.7595 28.7615 26.0855 28.9447 26.1402C29.2708 26.2402 29.6182 26.0831 29.6063 25.8666ZM30.3226 26.7803C30.1512 26.6447 29.8609 26.8613 29.7586 27.1016C29.6229 27.4157 29.9299 27.5609 30.0917 27.4585C30.3821 27.2777 30.4915 26.9136 30.3226 26.7803Z" fill="#F7CA76"/>
<path d="M26.9268 30.6853C26.9268 30.6853 26.9911 30.2546 26.677 29.6311C26.5413 29.3622 26.0059 28.8268 26.4081 28.3651C26.8102 27.9059 28.1714 28.1938 28.6116 28.289C29.0518 28.3842 29.761 28.3651 30.0299 28.0962C30.2988 27.8273 30.4891 26.716 31.4672 26.4471C32.4762 26.1711 32.9521 27.0611 33.3638 27.4252C33.6898 27.7131 34.1681 27.8273 34.8391 27.5965C35.5102 27.3657 35.3175 28.2485 35.3175 28.2485L34.5322 29.9928L26.9268 30.6853V30.6853ZM14.7978 28.2342C14.7978 28.2342 14.0886 26.8731 13.6294 24.7838C13.1701 22.6944 13.2058 22.0091 13.6865 21.852C14.5098 21.5831 15.0667 22.5802 15.3546 22.5231C15.6425 22.466 15.6996 21.2571 16.542 21.0667C17.3844 20.874 17.7104 21.6426 18.1316 22.3327C18.5528 23.0228 19.3381 24.8623 19.3381 24.8623C19.3381 24.8623 20.0853 24.5172 20.7374 24.8623C21.3894 25.2073 22.0224 26.2425 22.2889 26.9707C22.5578 27.6988 22.8195 28.3389 22.8195 28.3389C22.8195 28.3389 23.7405 28.5127 24.5876 29.0219C25.5466 29.5978 26.0059 30.7281 26.0059 30.7281L21.2942 31.0303C21.2942 31.0303 15.583 28.9791 15.5259 28.8839C15.4664 28.7887 14.7383 28.1557 14.7978 28.2342V28.2342Z" fill="#86C82C"/>
<path d="M15.5449 28.9816C15.5449 28.9816 15.2569 28.2915 15.3521 27.411C15.4473 26.5305 15.859 25.9689 16.5491 25.9689C17.0869 25.9689 18.0149 26.3187 18.9168 27.5823C19.8187 28.8459 19.9329 29.9977 19.9329 29.9977L16.1184 29.5003L15.5449 28.9816V28.9816Z" fill="#2D792A"/>
<path d="M15.7924 28.7317C15.7924 28.7317 15.4188 27.2111 15.8876 26.8542C16.2136 26.6043 16.7109 26.6828 17.6128 27.6775C18.6408 28.815 18.8574 29.8049 18.8574 29.8049L15.7924 28.7317Z" fill="#E7FCAE"/>
<path d="M20.4185 30.1785L20.8587 30.2165C20.8587 30.2165 21.1086 29.0481 22.0842 28.5674C23.0242 28.1082 24.0189 28.4913 24.0189 28.4913L24.1712 27.9344L23.136 27.5132L21.7368 27.8012C21.7368 27.8012 20.4708 28.9506 20.4708 29.0077C20.4708 29.0648 20.4185 30.1213 20.4185 30.1785V30.1785Z" fill="white"/>
<path d="M19.6545 30.3475C19.6545 30.2903 19.7711 28.6817 21.1299 27.7798C22.8552 26.6352 24.283 27.6085 24.283 27.6085L24.1045 28.1582C24.1045 28.1582 22.6196 27.5085 21.475 28.4889C20.535 29.2933 20.3256 30.5021 20.3256 30.5021L19.6545 30.3475V30.3475Z" fill="#D2608C"/>
<path d="M26.5913 38.4001C34.8653 38.3739 37.6733 31.6894 38.3419 29.2146C38.7798 27.5941 38.9369 26.1211 38.9369 26.1211L36.0337 29.3907C36.0337 29.3907 26.9292 31.1374 26.6246 31.1374C26.32 31.1374 21.2894 30.7328 21.2894 30.7328L16.1208 29.4978L12.5775 26.0663C12.5775 26.0663 12.6441 28.2009 13.2176 29.8214C13.6603 31.0707 16.2231 38.4334 26.5913 38.4001Z" fill="#F6F6F6"/>
<path d="M25.7799 31.6801C29.7301 31.7301 35.5031 30.7021 37.6662 28.539C39.0512 27.154 38.9489 25.9047 38.9489 25.9047C38.9489 25.9047 36.4502 30.6236 25.7442 30.4641C16.6635 30.3285 12.5705 26.0546 12.5705 26.0546C12.5705 26.0546 12.8132 27.5253 13.9269 28.439C16.5612 30.5926 20.5114 31.6111 25.7799 31.6801ZM15.4094 31.297C14.9454 31.7325 15.4475 32.839 16.5802 33.8361C17.7129 34.8332 18.8456 35.6327 19.412 35.0664C19.9998 34.4786 18.6124 33.0746 17.8295 32.3916C17.0466 31.7087 16.0138 30.7306 15.4094 31.297V31.297Z" fill="white"/>
</g>
<defs>
<clipPath id="clip0_33_96">
<rect width="40" height="40" fill="white"/>
</clipPath>
<clipPath id="clip1_33_96">
<rect width="36.8919" height="36.8919" fill="white" transform="translate(0 -0.108093)"/>
</clipPath>
</defs>
</svg>
