<svg width="40" height="40" viewBox="0 0 40 40" fill="none" xmlns="http://www.w3.org/2000/svg">
<g clip-path="url(#clip0_33_20)">
<path d="M35.8125 36.7944C36.0706 36.0125 36.1675 35.165 36.2506 34.3488C36.345 33.4544 36.1394 32.0925 36.7987 31.4113C37.2175 30.98 38.2356 30.9188 38.7762 30.6463C39.4694 30.2956 39.9869 29.5288 39.8262 28.7306C38.955 24.3938 32.4275 27.6006 29.8275 26.8556C29.7574 26.8343 29.685 26.8213 29.6119 26.8169C29.4694 26.0994 28.2981 25.6531 27.6769 26.4375C26.5475 27.8538 27.6487 29.2556 28.6556 30.3306C29.9737 31.7319 30.16 33.2194 30.3881 35.0619C30.5606 36.4469 30.8681 38.4631 32.3019 39.1225C34.07 39.9331 35.3212 38.2919 35.8125 36.7969V36.7944ZM4.04186 5.04563C3.78499 5.82438 3.68624 6.6725 3.60311 7.49063C3.50999 8.3825 3.71499 9.7475 3.05686 10.4263C2.63811 10.8575 1.62124 10.9188 1.07811 11.1906C0.386238 11.5388 -0.132512 12.3081 0.0293629 13.1069C0.900613 17.4438 7.42561 14.2363 10.0269 14.9819C10.1019 15.0038 10.17 15.0163 10.2437 15.0213C10.3844 15.7388 11.5556 16.185 12.1794 15.4031C13.3062 13.9844 12.205 12.5825 11.1981 11.5075C9.88124 10.1081 9.69624 8.61626 9.46561 6.77813C9.29311 5.39125 8.98686 3.375 7.55186 2.71563C5.78374 1.90688 4.53436 3.54625 4.04186 5.04375" fill="#DFAD92"/>
<path d="M30.1562 26.2212C30.5915 26.5664 30.8727 27.0696 30.9387 27.6212C31.0047 28.1727 30.8502 28.728 30.5087 29.1662C30.1672 29.6044 29.6665 29.8899 29.1155 29.9606C28.5645 30.0313 28.0079 29.8815 27.5668 29.5437L10.1418 15.9569C9.92358 15.7869 9.74098 15.5756 9.60448 15.335C9.46798 15.0944 9.38027 14.8293 9.34637 14.5548C9.31246 14.2802 9.33303 14.0017 9.4069 13.7351C9.48077 13.4686 9.60648 13.2192 9.77685 13.0012C9.94668 12.7829 10.1579 12.6003 10.3985 12.4637C10.639 12.3272 10.9041 12.2395 11.1786 12.2056C11.4531 12.1716 11.7316 12.1922 11.9981 12.2661C12.2647 12.34 12.514 12.4658 12.7318 12.6362L30.1562 26.2212Z" fill="#DFAD92"/>
<path d="M36.0125 36.0344C35.4994 36.2994 34.9025 36.3481 34.2263 36.0369C32.7881 35.3825 32.4844 33.3612 32.3106 31.9794C32.0806 30.1394 31.8938 28.6494 30.5763 27.2481C30.4875 27.1475 30.3963 27.05 30.3038 26.9487C30.143 26.9314 29.9839 26.9009 29.8281 26.8575C29.7576 26.834 29.6842 26.8201 29.61 26.8162C29.4656 26.0987 28.2988 25.655 27.6775 26.4369C26.5481 27.8556 27.6469 29.26 28.6538 30.33C29.9719 31.7337 30.1581 33.2187 30.3888 35.0612C30.5613 36.4462 30.8663 38.465 32.3025 39.1219C34.0688 39.935 35.3188 38.2937 35.8075 36.7987C35.89 36.5494 35.9563 36.2969 36.0125 36.0344ZM3.84314 5.79999C4.35751 5.53749 4.95314 5.48874 5.62939 5.79749C7.06751 6.45686 7.37126 8.47561 7.54501 9.85999C7.77564 11.7 7.95814 13.1875 9.28001 14.5887C9.36814 14.6894 9.46001 14.7875 9.55189 14.8881C9.72126 14.9075 9.88001 14.9375 10.0263 14.9812C10.1038 15.0006 10.1706 15.0156 10.2431 15.0231C10.39 15.7387 11.5588 16.1819 12.1788 15.4006C13.3056 13.9819 12.2081 12.58 11.2 11.5075C9.88189 10.1056 9.69564 8.61811 9.46501 6.77561C9.29251 5.39124 8.98876 3.37499 7.55251 2.71561C5.78439 1.90436 4.53626 3.54374 4.04376 5.04061C3.96376 5.28561 3.89876 5.53999 3.84314 5.79999Z" fill="#C99D87"/>
<path d="M31.8112 13.5819C30.775 12.9569 30.3581 13.3219 29.1831 12.9819C27.18 12.4013 26.3031 13.4031 24.6906 12.1906C23.9756 11.6563 23.3725 7.63188 22.7031 7.85938C22.3775 6.32438 19.645 5.86376 17.8587 6.93688C12.2462 10.3119 9.77872 15.4888 7.10059 21.2344C6.26122 23.0375 7.37247 24.3194 8.80997 24.59C9.03247 25.1744 9.52059 25.6481 10.3562 25.86C10.5312 25.9044 10.7137 25.9144 10.8925 25.9438C10.95 26.0075 11.0618 26.0881 11.2456 26.1913C11.5443 26.4369 13.1837 26.4588 13.4506 26.7431C14.1318 27.4144 14.9062 28.305 15.215 29.2125C16.0775 31.7613 16.5187 31.7313 18.0231 32.7663C21.5618 35.1844 24.7506 33.6388 27.2512 30.1613C27.7925 29.4131 28.4093 28.6325 29.0443 27.8288C29.3893 27.4308 29.7137 27.0155 30.0162 26.5844C31.8112 24.2506 33.5237 21.7231 33.8462 19.0844C34.0856 17.0769 33.5737 14.6413 31.8112 13.5825" fill="#977650"/>
<path d="M13.2375 20.8894C11.66 19.3138 10.5568 17.4244 9.99372 15.4494C8.96185 17.2725 8.0456 19.2182 7.1031 21.2344C6.26372 23.0375 7.37497 24.3194 8.81247 24.59C9.03497 25.1744 9.5231 25.6482 10.3587 25.86C10.5337 25.9044 10.7162 25.9144 10.895 25.9438C10.9525 26.0075 11.0643 26.0882 11.2481 26.1913C11.5468 26.4369 13.1862 26.4588 13.4531 26.7432C14.1343 27.4144 14.9087 28.305 15.2175 29.2125C16.08 31.7613 16.5212 31.7313 18.0256 32.7663C20.9893 34.7925 23.7068 34.0288 25.9831 31.6832C21.3162 29.4875 17.4337 25.0869 13.2375 20.8894" fill="#8A6D4E"/>
<path d="M26.2812 11.4088C26.2687 11.4013 26.2469 11.4013 26.2312 11.3963C26.1244 11.2319 25.3825 11.2419 25.1806 11.3794C20.1969 14.7313 14.3919 20.3919 12.9437 26.4794C12.6694 26.5506 12.4512 26.6925 12.5469 26.8544C12.6794 27.0756 12.8075 27.2981 12.9387 27.5206C13.1125 27.8125 13.8956 27.585 14.0844 27.4206C15.8131 25.8919 16.3819 23.0788 17.5675 21.1206C19.5575 17.835 22.4019 15.12 25.52 12.9144C25.8056 13.0275 26.4162 12.8381 26.5506 12.7206C26.6912 12.5938 26.8925 11.7681 26.2812 11.41" fill="#5F4E3D"/>
</g>
<defs>
<clipPath id="clip0_33_20">
<rect width="40" height="40" fill="white"/>
</clipPath>
</defs>
</svg>
