<svg width="16" height="16" viewBox="0 0 16 16" fill="none" xmlns="http://www.w3.org/2000/svg">
<path d="M12.6666 9.33335V4.00002C12.6666 3.26669 12.0666 2.66669 11.3333 2.66669H1.99996C1.26663 2.66669 0.666626 3.26669 0.666626 4.00002V9.33335C0.666626 10.0667 1.26663 10.6667 1.99996 10.6667H11.3333C12.0666 10.6667 12.6666 10.0667 12.6666 9.33335ZM11.3333 9.33335H1.99996V4.00002H11.3333V9.33335ZM6.66663 4.66669C5.55996 4.66669 4.66663 5.56002 4.66663 6.66669C4.66663 7.77335 5.55996 8.66669 6.66663 8.66669C7.77329 8.66669 8.66663 7.77335 8.66663 6.66669C8.66663 5.56002 7.77329 4.66669 6.66663 4.66669ZM15.3333 4.66669V12C15.3333 12.7334 14.7333 13.3334 14 13.3334H2.66663V12H14V4.66669H15.3333Z" fill="#718096"/>
</svg>
