<svg width="24" height="24" viewBox="0 0 24 24" fill="none" xmlns="http://www.w3.org/2000/svg">
<path d="M15.45 16.52L12.44 13.51C12.33 13.4 12.2 13.38 12.13 13.38C12.06 13.38 11.93 13.4 11.82 13.51L8.79997 16.53C8.45997 16.87 7.92997 17.42 6.15997 17.42L9.86997 21.12C10.4325 21.6818 11.195 21.9974 11.99 21.9974C12.785 21.9974 13.5475 21.6818 14.11 21.12L17.83 17.41C16.92 17.41 16.16 17.23 15.45 16.52V16.52ZM8.79997 7.47005L11.82 10.49C11.9 10.57 12.02 10.62 12.13 10.62C12.24 10.62 12.36 10.57 12.44 10.49L15.43 7.50005C16.14 6.76005 16.95 6.59005 17.86 6.59005L14.14 2.88005C13.5775 2.31824 12.815 2.00269 12.02 2.00269C11.225 2.00269 10.4625 2.31824 9.89997 2.88005L6.18997 6.58005C7.94997 6.58005 8.48997 7.16005 8.79997 7.47005V7.47005Z" fill="black"/>
<path d="M21.11 9.85007L18.86 7.59007H17.6C17.06 7.59007 16.52 7.81007 16.15 8.20007L13.15 11.2001C12.87 11.4801 12.5 11.6201 12.13 11.6201C11.749 11.6147 11.3843 11.4645 11.11 11.2001L8.08998 8.17007C7.70998 7.79007 7.18998 7.57007 6.63998 7.57007H5.16998L2.87998 9.87007C2.31818 10.4326 2.00262 11.1951 2.00262 11.9901C2.00262 12.7851 2.31818 13.5476 2.87998 14.1101L5.16998 16.4101H6.64998C7.18998 16.4101 7.70999 16.1901 8.09999 15.8101L11.12 12.7901C11.4 12.5101 11.77 12.3701 12.14 12.3701C12.51 12.3701 12.88 12.5101 13.16 12.7901L16.17 15.8001C16.55 16.1801 17.07 16.4001 17.62 16.4001H18.88L21.13 14.1401C21.6941 13.5674 22.0087 12.7948 22.005 11.9909C22.0012 11.1871 21.6795 10.4174 21.11 9.85007V9.85007Z" fill="black"/>
</svg>
