<svg width="17" height="16" viewBox="0 0 17 16" fill="none" xmlns="http://www.w3.org/2000/svg">
<g clip-path="url(#clip0_37_160)">
<path d="M14.5993 14L11.6086 11.004L14.5993 14ZM13.266 6.99998C13.266 8.50287 12.6689 9.94421 11.6062 11.0069C10.5435 12.0696 9.10218 12.6666 7.59928 12.6666C6.09639 12.6666 4.65505 12.0696 3.59235 11.0069C2.52964 9.94421 1.93262 8.50287 1.93262 6.99998C1.93262 5.49709 2.52964 4.05575 3.59235 2.99304C4.65505 1.93034 6.09639 1.33331 7.59928 1.33331C9.10218 1.33331 10.5435 1.93034 11.6062 2.99304C12.6689 4.05575 13.266 5.49709 13.266 6.99998V6.99998Z" stroke="black" stroke-width="2" stroke-linecap="round"/>
</g>
<defs>
<clipPath id="clip0_37_160">
<rect width="16" height="16" fill="white" transform="translate(0.599304)"/>
</clipPath>
</defs>
</svg>
