<svg width="412" height="372" viewBox="0 0 412 372" fill="none" xmlns="http://www.w3.org/2000/svg">
<circle cx="-4.2048" cy="9.43162" r="5.4661" fill="#C5BDB1" fill-opacity="0.2"/>
<circle cx="-4.2048" cy="24.7367" r="5.4661" fill="#C5BDB1" fill-opacity="0.2"/>
<circle cx="-4.2048" cy="40.0418" r="5.4661" fill="#C5BDB1" fill-opacity="0.2"/>
<circle cx="-4.2048" cy="55.3468" r="5.4661" fill="#C5BDB1" fill-opacity="0.2"/>
<circle cx="-4.2048" cy="70.652" r="5.4661" fill="#C5BDB1" fill-opacity="0.2"/>
<circle cx="-4.2048" cy="85.957" r="5.4661" fill="#C5BDB1" fill-opacity="0.2"/>
<circle cx="-4.2048" cy="101.262" r="5.4661" fill="#C5BDB1" fill-opacity="0.2"/>
<circle cx="-4.2048" cy="116.567" r="5.4661" fill="#C5BDB1" fill-opacity="0.2"/>
<circle cx="-4.2048" cy="131.872" r="5.4661" fill="#C5BDB1" fill-opacity="0.2"/>
<circle cx="-4.2048" cy="147.177" r="5.4661" fill="#C5BDB1" fill-opacity="0.2"/>
<circle cx="-4.2048" cy="162.482" r="5.4661" fill="#C5BDB1" fill-opacity="0.2"/>
<circle cx="-4.2048" cy="177.788" r="5.4661" fill="#C5BDB1" fill-opacity="0.2"/>
<circle cx="-4.2048" cy="193.093" r="5.4661" fill="#C5BDB1" fill-opacity="0.2"/>
<circle cx="-4.2048" cy="208.398" r="5.4661" fill="#C5BDB1" fill-opacity="0.2"/>
<circle cx="-4.2048" cy="223.703" r="5.4661" fill="#C5BDB1" fill-opacity="0.2"/>
<circle cx="-4.2048" cy="239.008" r="5.4661" fill="#C5BDB1" fill-opacity="0.2"/>
<circle cx="-4.2048" cy="254.313" r="5.4661" fill="#C5BDB1" fill-opacity="0.2"/>
<circle cx="-4.2048" cy="269.618" r="5.4661" fill="#C5BDB1" fill-opacity="0.2"/>
<circle cx="-4.2048" cy="284.923" r="5.4661" fill="#C5BDB1" fill-opacity="0.2"/>
<circle cx="-4.2048" cy="300.228" r="5.4661" fill="#C5BDB1" fill-opacity="0.2"/>
<circle cx="-4.2048" cy="315.533" r="5.4661" fill="#C5BDB1" fill-opacity="0.2"/>
<circle cx="-4.2048" cy="330.838" r="5.4661" fill="#C5BDB1" fill-opacity="0.2"/>
<circle cx="-4.2048" cy="346.144" r="5.4661" fill="#C5BDB1" fill-opacity="0.2"/>
<circle cx="-4.2048" cy="361.449" r="5.4661" fill="#C5BDB1" fill-opacity="0.2"/>
<circle cx="12.2249" cy="4.0601" r="5.4661" fill="#C5BDB1" fill-opacity="0.2"/>
<circle cx="12.2249" cy="19.3652" r="5.4661" fill="#C5BDB1" fill-opacity="0.2"/>
<circle cx="12.2249" cy="34.6703" r="5.4661" fill="#C5BDB1" fill-opacity="0.2"/>
<circle cx="12.2249" cy="49.9754" r="5.4661" fill="#C5BDB1" fill-opacity="0.2"/>
<circle cx="12.2249" cy="65.2804" r="5.4661" fill="#C5BDB1" fill-opacity="0.2"/>
<circle cx="12.2249" cy="80.5855" r="5.4661" fill="#C5BDB1" fill-opacity="0.2"/>
<circle cx="12.2249" cy="95.8906" r="5.4661" fill="#C5BDB1" fill-opacity="0.2"/>
<circle cx="12.2249" cy="111.196" r="5.4661" fill="#C5BDB1" fill-opacity="0.2"/>
<circle cx="12.2249" cy="126.501" r="5.4661" fill="#C5BDB1" fill-opacity="0.2"/>
<circle cx="12.2249" cy="141.806" r="5.4661" fill="#C5BDB1" fill-opacity="0.2"/>
<circle cx="12.2249" cy="157.111" r="5.4661" fill="#C5BDB1" fill-opacity="0.2"/>
<circle cx="12.2249" cy="172.416" r="5.4661" fill="#C5BDB1" fill-opacity="0.2"/>
<circle cx="12.2249" cy="187.721" r="5.4661" fill="#C5BDB1" fill-opacity="0.2"/>
<circle cx="12.2249" cy="203.026" r="5.4661" fill="#C5BDB1" fill-opacity="0.2"/>
<circle cx="12.2249" cy="218.331" r="5.4661" fill="#C5BDB1" fill-opacity="0.2"/>
<circle cx="12.2249" cy="233.636" r="5.4661" fill="#C5BDB1" fill-opacity="0.2"/>
<circle cx="12.2249" cy="248.941" r="5.4661" fill="#C5BDB1" fill-opacity="0.2"/>
<circle cx="12.2249" cy="264.247" r="5.4661" fill="#C5BDB1" fill-opacity="0.2"/>
<circle cx="12.2249" cy="279.552" r="5.4661" fill="#C5BDB1" fill-opacity="0.2"/>
<circle cx="12.2249" cy="294.857" r="5.4661" fill="#C5BDB1" fill-opacity="0.2"/>
<circle cx="12.2249" cy="310.162" r="5.4661" fill="#C5BDB1" fill-opacity="0.2"/>
<circle cx="12.2249" cy="325.467" r="5.4661" fill="#C5BDB1" fill-opacity="0.2"/>
<circle cx="12.2249" cy="340.772" r="5.4661" fill="#C5BDB1" fill-opacity="0.2"/>
<circle cx="12.2249" cy="356.077" r="5.4661" fill="#C5BDB1" fill-opacity="0.2"/>
<circle cx="28.6546" cy="-1.31136" r="5.4661" fill="#C5BDB1" fill-opacity="0.2"/>
<circle cx="28.6546" cy="13.9937" r="5.4661" fill="#C5BDB1" fill-opacity="0.2"/>
<circle cx="28.6546" cy="29.2988" r="5.4661" fill="#C5BDB1" fill-opacity="0.2"/>
<circle cx="28.6546" cy="44.6039" r="5.4661" fill="#C5BDB1" fill-opacity="0.2"/>
<circle cx="28.6546" cy="59.909" r="5.4661" fill="#C5BDB1" fill-opacity="0.2"/>
<circle cx="28.6546" cy="75.214" r="5.4661" fill="#C5BDB1" fill-opacity="0.2"/>
<circle cx="28.6546" cy="90.5191" r="5.4661" fill="#C5BDB1" fill-opacity="0.2"/>
<circle cx="28.6546" cy="105.824" r="5.4661" fill="#C5BDB1" fill-opacity="0.2"/>
<circle cx="28.6546" cy="121.129" r="5.4661" fill="#C5BDB1" fill-opacity="0.2"/>
<circle cx="28.6546" cy="136.434" r="5.4661" fill="#C5BDB1" fill-opacity="0.2"/>
<circle cx="28.6546" cy="151.739" r="5.4661" fill="#C5BDB1" fill-opacity="0.2"/>
<circle cx="28.6546" cy="167.045" r="5.4661" fill="#C5BDB1" fill-opacity="0.2"/>
<circle cx="28.6546" cy="182.35" r="5.4661" fill="#C5BDB1" fill-opacity="0.2"/>
<circle cx="28.6546" cy="197.655" r="5.4661" fill="#C5BDB1" fill-opacity="0.2"/>
<circle cx="28.6546" cy="212.96" r="5.4661" fill="#C5BDB1" fill-opacity="0.2"/>
<circle cx="28.6546" cy="228.265" r="5.4661" fill="#C5BDB1" fill-opacity="0.2"/>
<circle cx="28.6546" cy="243.57" r="5.4661" fill="#C5BDB1" fill-opacity="0.2"/>
<circle cx="28.6546" cy="258.875" r="5.4661" fill="#C5BDB1" fill-opacity="0.2"/>
<circle cx="28.6546" cy="274.18" r="5.4661" fill="#C5BDB1" fill-opacity="0.2"/>
<circle cx="28.6546" cy="289.485" r="5.4661" fill="#C5BDB1" fill-opacity="0.2"/>
<circle cx="28.6546" cy="304.79" r="5.4661" fill="#C5BDB1" fill-opacity="0.2"/>
<circle cx="28.6546" cy="320.095" r="5.4661" fill="#C5BDB1" fill-opacity="0.2"/>
<circle cx="28.6546" cy="335.401" r="5.4661" fill="#C5BDB1" fill-opacity="0.2"/>
<circle cx="28.6546" cy="350.706" r="5.4661" fill="#C5BDB1" fill-opacity="0.2"/>
<circle cx="45.0833" cy="8.62223" r="5.4661" fill="#C5BDB1" fill-opacity="0.2"/>
<circle cx="45.0833" cy="23.9273" r="5.4661" fill="#C5BDB1" fill-opacity="0.2"/>
<circle cx="45.0833" cy="39.2324" r="5.4661" fill="#C5BDB1" fill-opacity="0.2"/>
<circle cx="45.0833" cy="54.5375" r="5.4661" fill="#C5BDB1" fill-opacity="0.2"/>
<circle cx="45.0833" cy="69.8426" r="5.4661" fill="#C5BDB1" fill-opacity="0.2"/>
<circle cx="45.0833" cy="85.1477" r="5.4661" fill="#C5BDB1" fill-opacity="0.2"/>
<circle cx="45.0833" cy="100.453" r="5.4661" fill="#C5BDB1" fill-opacity="0.2"/>
<circle cx="45.0833" cy="115.758" r="5.4661" fill="#C5BDB1" fill-opacity="0.2"/>
<circle cx="45.0833" cy="131.063" r="5.4661" fill="#C5BDB1" fill-opacity="0.2"/>
<circle cx="45.0833" cy="146.368" r="5.4661" fill="#C5BDB1" fill-opacity="0.2"/>
<circle cx="45.0833" cy="161.673" r="5.4661" fill="#C5BDB1" fill-opacity="0.2"/>
<circle cx="45.0833" cy="176.978" r="5.4661" fill="#C5BDB1" fill-opacity="0.2"/>
<circle cx="45.0833" cy="192.283" r="5.4661" fill="#C5BDB1" fill-opacity="0.2"/>
<circle cx="45.0833" cy="207.588" r="5.4661" fill="#C5BDB1" fill-opacity="0.2"/>
<circle cx="45.0833" cy="222.893" r="5.4661" fill="#C5BDB1" fill-opacity="0.2"/>
<circle cx="45.0833" cy="238.199" r="5.4661" fill="#C5BDB1" fill-opacity="0.2"/>
<circle cx="45.0833" cy="253.504" r="5.4661" fill="#C5BDB1" fill-opacity="0.2"/>
<circle cx="45.0833" cy="268.809" r="5.4661" fill="#C5BDB1" fill-opacity="0.2"/>
<circle cx="45.0833" cy="284.114" r="5.4661" fill="#C5BDB1" fill-opacity="0.2"/>
<circle cx="45.0833" cy="299.419" r="5.4661" fill="#C5BDB1" fill-opacity="0.2"/>
<circle cx="45.0833" cy="314.724" r="5.4661" fill="#C5BDB1" fill-opacity="0.2"/>
<circle cx="45.0833" cy="330.029" r="5.4661" fill="#C5BDB1" fill-opacity="0.2"/>
<circle cx="45.0833" cy="345.334" r="5.4661" fill="#C5BDB1" fill-opacity="0.2"/>
<circle cx="61.514" cy="3.25071" r="5.4661" fill="#C5BDB1" fill-opacity="0.2"/>
<circle cx="61.514" cy="18.5558" r="5.4661" fill="#C5BDB1" fill-opacity="0.2"/>
<circle cx="61.514" cy="33.8609" r="5.4661" fill="#C5BDB1" fill-opacity="0.2"/>
<circle cx="61.514" cy="49.166" r="5.4661" fill="#C5BDB1" fill-opacity="0.2"/>
<circle cx="61.514" cy="64.4711" r="5.4661" fill="#C5BDB1" fill-opacity="0.2"/>
<circle cx="61.514" cy="79.7762" r="5.4661" fill="#C5BDB1" fill-opacity="0.2"/>
<circle cx="61.514" cy="95.0813" r="5.4661" fill="#C5BDB1" fill-opacity="0.2"/>
<circle cx="61.514" cy="110.386" r="5.4661" fill="#C5BDB1" fill-opacity="0.2"/>
<circle cx="61.514" cy="125.691" r="5.4661" fill="#C5BDB1" fill-opacity="0.2"/>
<circle cx="61.514" cy="140.996" r="5.4661" fill="#C5BDB1" fill-opacity="0.2"/>
<circle cx="61.514" cy="156.302" r="5.4661" fill="#C5BDB1" fill-opacity="0.2"/>
<circle cx="61.514" cy="171.607" r="5.4661" fill="#C5BDB1" fill-opacity="0.2"/>
<circle cx="61.514" cy="186.912" r="5.4661" fill="#C5BDB1" fill-opacity="0.2"/>
<circle cx="61.514" cy="202.217" r="5.4661" fill="#C5BDB1" fill-opacity="0.2"/>
<circle cx="61.514" cy="217.522" r="5.4661" fill="#C5BDB1" fill-opacity="0.2"/>
<circle cx="61.514" cy="232.827" r="5.4661" fill="#C5BDB1" fill-opacity="0.2"/>
<circle cx="61.514" cy="248.132" r="5.4661" fill="#C5BDB1" fill-opacity="0.2"/>
<circle cx="61.514" cy="263.437" r="5.4661" fill="#C5BDB1" fill-opacity="0.2"/>
<circle cx="61.514" cy="278.742" r="5.4661" fill="#C5BDB1" fill-opacity="0.2"/>
<circle cx="61.514" cy="294.047" r="5.4661" fill="#C5BDB1" fill-opacity="0.2"/>
<circle cx="61.514" cy="309.352" r="5.4661" fill="#C5BDB1" fill-opacity="0.2"/>
<circle cx="61.514" cy="324.658" r="5.4661" fill="#C5BDB1" fill-opacity="0.2"/>
<circle cx="61.514" cy="339.963" r="5.4661" fill="#C5BDB1" fill-opacity="0.2"/>
<circle cx="77.9427" cy="-2.12075" r="5.4661" fill="#C5BDB1" fill-opacity="0.2"/>
<circle cx="77.9427" cy="13.1843" r="5.4661" fill="#C5BDB1" fill-opacity="0.2"/>
<circle cx="77.9427" cy="28.4894" r="5.4661" fill="#C5BDB1" fill-opacity="0.2"/>
<circle cx="77.9427" cy="43.7945" r="5.4661" fill="#C5BDB1" fill-opacity="0.2"/>
<circle cx="77.9427" cy="59.0996" r="5.4661" fill="#C5BDB1" fill-opacity="0.2"/>
<circle cx="77.9427" cy="74.4047" r="5.4661" fill="#C5BDB1" fill-opacity="0.2"/>
<circle cx="77.9427" cy="89.7098" r="5.4661" fill="#C5BDB1" fill-opacity="0.2"/>
<circle cx="77.9427" cy="105.015" r="5.4661" fill="#C5BDB1" fill-opacity="0.2"/>
<circle cx="77.9427" cy="120.32" r="5.4661" fill="#C5BDB1" fill-opacity="0.2"/>
<circle cx="77.9427" cy="135.625" r="5.4661" fill="#C5BDB1" fill-opacity="0.2"/>
<circle cx="77.9427" cy="150.93" r="5.4661" fill="#C5BDB1" fill-opacity="0.2"/>
<circle cx="77.9427" cy="166.235" r="5.4661" fill="#C5BDB1" fill-opacity="0.2"/>
<circle cx="77.9427" cy="181.54" r="5.4661" fill="#C5BDB1" fill-opacity="0.2"/>
<circle cx="77.9427" cy="196.845" r="5.4661" fill="#C5BDB1" fill-opacity="0.2"/>
<circle cx="77.9427" cy="212.15" r="5.4661" fill="#C5BDB1" fill-opacity="0.2"/>
<circle cx="77.9427" cy="227.456" r="5.4661" fill="#C5BDB1" fill-opacity="0.2"/>
<circle cx="77.9427" cy="242.761" r="5.4661" fill="#C5BDB1" fill-opacity="0.2"/>
<circle cx="77.9427" cy="258.066" r="5.4661" fill="#C5BDB1" fill-opacity="0.2"/>
<circle cx="77.9427" cy="273.371" r="5.4661" fill="#C5BDB1" fill-opacity="0.2"/>
<circle cx="77.9427" cy="288.676" r="5.4661" fill="#C5BDB1" fill-opacity="0.2"/>
<circle cx="77.9427" cy="303.981" r="5.4661" fill="#C5BDB1" fill-opacity="0.2"/>
<circle cx="77.9427" cy="319.286" r="5.4661" fill="#C5BDB1" fill-opacity="0.2"/>
<circle cx="77.9427" cy="334.591" r="5.4661" fill="#C5BDB1" fill-opacity="0.2"/>
<circle cx="94.3724" cy="7.81272" r="5.4661" fill="#C5BDB1" fill-opacity="0.2"/>
<circle cx="94.3724" cy="23.1178" r="5.4661" fill="#C5BDB1" fill-opacity="0.2"/>
<circle cx="94.3724" cy="38.4229" r="5.4661" fill="#C5BDB1" fill-opacity="0.2"/>
<circle cx="94.3724" cy="53.7279" r="5.4661" fill="#C5BDB1" fill-opacity="0.2"/>
<circle cx="94.3724" cy="69.0331" r="5.4661" fill="#C5BDB1" fill-opacity="0.2"/>
<circle cx="94.3724" cy="84.3382" r="5.4661" fill="#C5BDB1" fill-opacity="0.2"/>
<circle cx="94.3724" cy="99.6432" r="5.4661" fill="#C5BDB1" fill-opacity="0.2"/>
<circle cx="94.3724" cy="114.948" r="5.4661" fill="#C5BDB1" fill-opacity="0.2"/>
<circle cx="94.3724" cy="130.253" r="5.4661" fill="#C5BDB1" fill-opacity="0.2"/>
<circle cx="94.3724" cy="145.559" r="5.4661" fill="#C5BDB1" fill-opacity="0.2"/>
<circle cx="94.3724" cy="160.864" r="5.4661" fill="#C5BDB1" fill-opacity="0.2"/>
<circle cx="94.3724" cy="176.169" r="5.4661" fill="#C5BDB1" fill-opacity="0.2"/>
<circle cx="94.3724" cy="191.474" r="5.4661" fill="#C5BDB1" fill-opacity="0.2"/>
<circle cx="94.3724" cy="206.779" r="5.4661" fill="#C5BDB1" fill-opacity="0.2"/>
<circle cx="94.3724" cy="222.084" r="5.4661" fill="#C5BDB1" fill-opacity="0.2"/>
<circle cx="94.3724" cy="237.389" r="5.4661" fill="#C5BDB1" fill-opacity="0.2"/>
<circle cx="94.3724" cy="252.694" r="5.4661" fill="#C5BDB1" fill-opacity="0.2"/>
<circle cx="94.3724" cy="267.999" r="5.4661" fill="#C5BDB1" fill-opacity="0.2"/>
<circle cx="94.3724" cy="283.304" r="5.4661" fill="#C5BDB1" fill-opacity="0.2"/>
<circle cx="94.3724" cy="298.609" r="5.4661" fill="#C5BDB1" fill-opacity="0.2"/>
<circle cx="94.3724" cy="313.914" r="5.4661" fill="#C5BDB1" fill-opacity="0.2"/>
<circle cx="94.3724" cy="329.22" r="5.4661" fill="#C5BDB1" fill-opacity="0.2"/>
<circle cx="110.802" cy="2.44138" r="5.4661" fill="#C5BDB1" fill-opacity="0.2"/>
<circle cx="110.802" cy="17.7464" r="5.4661" fill="#C5BDB1" fill-opacity="0.2"/>
<circle cx="110.802" cy="33.0516" r="5.4661" fill="#C5BDB1" fill-opacity="0.2"/>
<circle cx="110.802" cy="48.3566" r="5.4661" fill="#C5BDB1" fill-opacity="0.2"/>
<circle cx="110.802" cy="63.6617" r="5.4661" fill="#C5BDB1" fill-opacity="0.2"/>
<circle cx="110.802" cy="78.9668" r="5.4661" fill="#C5BDB1" fill-opacity="0.2"/>
<circle cx="110.802" cy="94.2719" r="5.4661" fill="#C5BDB1" fill-opacity="0.2"/>
<circle cx="110.802" cy="109.577" r="5.4661" fill="#C5BDB1" fill-opacity="0.2"/>
<circle cx="110.802" cy="124.882" r="5.4661" fill="#C5BDB1" fill-opacity="0.2"/>
<circle cx="110.802" cy="140.187" r="5.4661" fill="#C5BDB1" fill-opacity="0.2"/>
<circle cx="110.802" cy="155.492" r="5.4661" fill="#C5BDB1" fill-opacity="0.2"/>
<circle cx="110.802" cy="170.797" r="5.4661" fill="#C5BDB1" fill-opacity="0.2"/>
<circle cx="110.802" cy="186.102" r="5.4661" fill="#C5BDB1" fill-opacity="0.2"/>
<circle cx="110.802" cy="201.408" r="5.4661" fill="#C5BDB1" fill-opacity="0.2"/>
<circle cx="110.802" cy="216.713" r="5.4661" fill="#C5BDB1" fill-opacity="0.2"/>
<circle cx="110.802" cy="232.018" r="5.4661" fill="#C5BDB1" fill-opacity="0.2"/>
<circle cx="110.802" cy="247.323" r="5.4661" fill="#C5BDB1" fill-opacity="0.2"/>
<circle cx="110.802" cy="262.628" r="5.4661" fill="#C5BDB1" fill-opacity="0.2"/>
<circle cx="110.802" cy="277.933" r="5.4661" fill="#C5BDB1" fill-opacity="0.2"/>
<circle cx="110.802" cy="293.238" r="5.4661" fill="#C5BDB1" fill-opacity="0.2"/>
<circle cx="110.802" cy="308.543" r="5.4661" fill="#C5BDB1" fill-opacity="0.2"/>
<circle cx="110.802" cy="323.848" r="5.4661" fill="#C5BDB1" fill-opacity="0.2"/>
<circle cx="127.232" cy="-2.93026" r="5.4661" fill="#C5BDB1" fill-opacity="0.2"/>
<circle cx="127.232" cy="12.3748" r="5.4661" fill="#C5BDB1" fill-opacity="0.2"/>
<circle cx="127.232" cy="27.6799" r="5.4661" fill="#C5BDB1" fill-opacity="0.2"/>
<circle cx="127.232" cy="42.985" r="5.4661" fill="#C5BDB1" fill-opacity="0.2"/>
<circle cx="127.232" cy="58.2901" r="5.4661" fill="#C5BDB1" fill-opacity="0.2"/>
<circle cx="127.232" cy="73.5952" r="5.4661" fill="#C5BDB1" fill-opacity="0.2"/>
<circle cx="127.232" cy="88.9002" r="5.4661" fill="#C5BDB1" fill-opacity="0.2"/>
<circle cx="127.232" cy="104.205" r="5.4661" fill="#C5BDB1" fill-opacity="0.2"/>
<circle cx="127.232" cy="119.51" r="5.4661" fill="#C5BDB1" fill-opacity="0.2"/>
<circle cx="127.232" cy="134.816" r="5.4661" fill="#C5BDB1" fill-opacity="0.2"/>
<circle cx="127.232" cy="150.121" r="5.4661" fill="#C5BDB1" fill-opacity="0.2"/>
<circle cx="127.232" cy="165.426" r="5.4661" fill="#C5BDB1" fill-opacity="0.2"/>
<circle cx="127.232" cy="180.731" r="5.4661" fill="#C5BDB1" fill-opacity="0.2"/>
<circle cx="127.232" cy="196.036" r="5.4661" fill="#C5BDB1" fill-opacity="0.2"/>
<circle cx="127.232" cy="211.341" r="5.4661" fill="#C5BDB1" fill-opacity="0.2"/>
<circle cx="127.232" cy="226.646" r="5.4661" fill="#C5BDB1" fill-opacity="0.2"/>
<circle cx="127.232" cy="241.951" r="5.4661" fill="#C5BDB1" fill-opacity="0.2"/>
<circle cx="127.232" cy="257.256" r="5.4661" fill="#C5BDB1" fill-opacity="0.2"/>
<circle cx="127.232" cy="272.561" r="5.4661" fill="#C5BDB1" fill-opacity="0.2"/>
<circle cx="127.232" cy="287.866" r="5.4661" fill="#C5BDB1" fill-opacity="0.2"/>
<circle cx="127.232" cy="303.171" r="5.4661" fill="#C5BDB1" fill-opacity="0.2"/>
<circle cx="127.232" cy="318.477" r="5.4661" fill="#C5BDB1" fill-opacity="0.2"/>
<circle cx="143.66" cy="7.00346" r="5.4661" fill="#C5BDB1" fill-opacity="0.2"/>
<circle cx="143.66" cy="22.3086" r="5.4661" fill="#C5BDB1" fill-opacity="0.2"/>
<circle cx="143.66" cy="37.6136" r="5.4661" fill="#C5BDB1" fill-opacity="0.2"/>
<circle cx="143.66" cy="52.9187" r="5.4661" fill="#C5BDB1" fill-opacity="0.2"/>
<circle cx="143.66" cy="68.2238" r="5.4661" fill="#C5BDB1" fill-opacity="0.2"/>
<circle cx="143.66" cy="83.5289" r="5.4661" fill="#C5BDB1" fill-opacity="0.2"/>
<circle cx="143.66" cy="98.834" r="5.4661" fill="#C5BDB1" fill-opacity="0.2"/>
<circle cx="143.66" cy="114.139" r="5.4661" fill="#C5BDB1" fill-opacity="0.2"/>
<circle cx="143.66" cy="129.444" r="5.4661" fill="#C5BDB1" fill-opacity="0.2"/>
<circle cx="143.66" cy="144.749" r="5.4661" fill="#C5BDB1" fill-opacity="0.2"/>
<circle cx="143.66" cy="160.054" r="5.4661" fill="#C5BDB1" fill-opacity="0.2"/>
<circle cx="143.66" cy="175.359" r="5.4661" fill="#C5BDB1" fill-opacity="0.2"/>
<circle cx="143.66" cy="190.665" r="5.4661" fill="#C5BDB1" fill-opacity="0.2"/>
<circle cx="143.66" cy="205.97" r="5.4661" fill="#C5BDB1" fill-opacity="0.2"/>
<circle cx="143.66" cy="221.275" r="5.4661" fill="#C5BDB1" fill-opacity="0.2"/>
<circle cx="143.66" cy="236.58" r="5.4661" fill="#C5BDB1" fill-opacity="0.2"/>
<circle cx="143.66" cy="251.885" r="5.4661" fill="#C5BDB1" fill-opacity="0.2"/>
<circle cx="143.66" cy="267.19" r="5.4661" fill="#C5BDB1" fill-opacity="0.2"/>
<circle cx="143.66" cy="282.495" r="5.4661" fill="#C5BDB1" fill-opacity="0.2"/>
<circle cx="143.66" cy="297.8" r="5.4661" fill="#C5BDB1" fill-opacity="0.2"/>
<circle cx="143.66" cy="313.105" r="5.4661" fill="#C5BDB1" fill-opacity="0.2"/>
<circle cx="160.091" cy="1.63187" r="5.4661" fill="#C5BDB1" fill-opacity="0.2"/>
<circle cx="160.091" cy="16.9369" r="5.4661" fill="#C5BDB1" fill-opacity="0.2"/>
<circle cx="160.091" cy="32.242" r="5.4661" fill="#C5BDB1" fill-opacity="0.2"/>
<circle cx="160.091" cy="47.5471" r="5.4661" fill="#C5BDB1" fill-opacity="0.2"/>
<circle cx="160.091" cy="62.8522" r="5.4661" fill="#C5BDB1" fill-opacity="0.2"/>
<circle cx="160.091" cy="78.1573" r="5.4661" fill="#C5BDB1" fill-opacity="0.2"/>
<circle cx="160.091" cy="93.4624" r="5.4661" fill="#C5BDB1" fill-opacity="0.2"/>
<circle cx="160.091" cy="108.767" r="5.4661" fill="#C5BDB1" fill-opacity="0.2"/>
<circle cx="160.091" cy="124.073" r="5.4661" fill="#C5BDB1" fill-opacity="0.2"/>
<circle cx="160.091" cy="139.378" r="5.4661" fill="#C5BDB1" fill-opacity="0.2"/>
<circle cx="160.091" cy="154.683" r="5.4661" fill="#C5BDB1" fill-opacity="0.2"/>
<circle cx="160.091" cy="169.988" r="5.4661" fill="#C5BDB1" fill-opacity="0.2"/>
<circle cx="160.091" cy="185.293" r="5.4661" fill="#C5BDB1" fill-opacity="0.2"/>
<circle cx="160.091" cy="200.598" r="5.4661" fill="#C5BDB1" fill-opacity="0.2"/>
<circle cx="160.091" cy="215.903" r="5.4661" fill="#C5BDB1" fill-opacity="0.2"/>
<circle cx="160.091" cy="231.208" r="5.4661" fill="#C5BDB1" fill-opacity="0.2"/>
<circle cx="160.091" cy="246.513" r="5.4661" fill="#C5BDB1" fill-opacity="0.2"/>
<circle cx="160.091" cy="261.818" r="5.4661" fill="#C5BDB1" fill-opacity="0.2"/>
<circle cx="160.091" cy="277.123" r="5.4661" fill="#C5BDB1" fill-opacity="0.2"/>
<circle cx="160.091" cy="292.428" r="5.4661" fill="#C5BDB1" fill-opacity="0.2"/>
<circle cx="160.091" cy="307.734" r="5.4661" fill="#C5BDB1" fill-opacity="0.2"/>
<circle cx="176.52" cy="-3.73965" r="5.4661" fill="#C5BDB1" fill-opacity="0.2"/>
<circle cx="176.52" cy="11.5655" r="5.4661" fill="#C5BDB1" fill-opacity="0.2"/>
<circle cx="176.52" cy="26.8705" r="5.4661" fill="#C5BDB1" fill-opacity="0.2"/>
<circle cx="176.52" cy="42.1756" r="5.4661" fill="#C5BDB1" fill-opacity="0.2"/>
<circle cx="176.52" cy="57.4807" r="5.4661" fill="#C5BDB1" fill-opacity="0.2"/>
<circle cx="176.52" cy="72.7858" r="5.4661" fill="#C5BDB1" fill-opacity="0.2"/>
<circle cx="176.52" cy="88.0909" r="5.4661" fill="#C5BDB1" fill-opacity="0.2"/>
<circle cx="176.52" cy="103.396" r="5.4661" fill="#C5BDB1" fill-opacity="0.2"/>
<circle cx="176.52" cy="118.701" r="5.4661" fill="#C5BDB1" fill-opacity="0.2"/>
<circle cx="176.52" cy="134.006" r="5.4661" fill="#C5BDB1" fill-opacity="0.2"/>
<circle cx="176.52" cy="149.311" r="5.4661" fill="#C5BDB1" fill-opacity="0.2"/>
<circle cx="176.52" cy="164.616" r="5.4661" fill="#C5BDB1" fill-opacity="0.2"/>
<circle cx="176.52" cy="179.921" r="5.4661" fill="#C5BDB1" fill-opacity="0.2"/>
<circle cx="176.52" cy="195.226" r="5.4661" fill="#C5BDB1" fill-opacity="0.2"/>
<circle cx="176.52" cy="210.532" r="5.4661" fill="#C5BDB1" fill-opacity="0.2"/>
<circle cx="176.52" cy="225.837" r="5.4661" fill="#C5BDB1" fill-opacity="0.2"/>
<circle cx="176.52" cy="241.142" r="5.4661" fill="#C5BDB1" fill-opacity="0.2"/>
<circle cx="176.52" cy="256.447" r="5.4661" fill="#C5BDB1" fill-opacity="0.2"/>
<circle cx="176.52" cy="271.752" r="5.4661" fill="#C5BDB1" fill-opacity="0.2"/>
<circle cx="176.52" cy="287.057" r="5.4661" fill="#C5BDB1" fill-opacity="0.2"/>
<circle cx="176.52" cy="302.362" r="5.4661" fill="#C5BDB1" fill-opacity="0.2"/>
<circle cx="192.949" cy="6.19395" r="5.4661" fill="#C5BDB1" fill-opacity="0.2"/>
<circle cx="192.949" cy="21.4991" r="5.4661" fill="#C5BDB1" fill-opacity="0.2"/>
<circle cx="192.949" cy="36.8041" r="5.4661" fill="#C5BDB1" fill-opacity="0.2"/>
<circle cx="192.949" cy="52.1092" r="5.4661" fill="#C5BDB1" fill-opacity="0.2"/>
<circle cx="192.949" cy="67.4143" r="5.4661" fill="#C5BDB1" fill-opacity="0.2"/>
<circle cx="192.949" cy="82.7194" r="5.4661" fill="#C5BDB1" fill-opacity="0.2"/>
<circle cx="192.949" cy="98.0245" r="5.4661" fill="#C5BDB1" fill-opacity="0.2"/>
<circle cx="192.949" cy="113.33" r="5.4661" fill="#C5BDB1" fill-opacity="0.2"/>
<circle cx="192.949" cy="128.635" r="5.4661" fill="#C5BDB1" fill-opacity="0.2"/>
<circle cx="192.949" cy="143.94" r="5.4661" fill="#C5BDB1" fill-opacity="0.2"/>
<circle cx="192.949" cy="159.245" r="5.4661" fill="#C5BDB1" fill-opacity="0.2"/>
<circle cx="192.949" cy="174.55" r="5.4661" fill="#C5BDB1" fill-opacity="0.2"/>
<circle cx="192.949" cy="189.855" r="5.4661" fill="#C5BDB1" fill-opacity="0.2"/>
<circle cx="192.949" cy="205.16" r="5.4661" fill="#C5BDB1" fill-opacity="0.2"/>
<circle cx="192.949" cy="220.465" r="5.4661" fill="#C5BDB1" fill-opacity="0.2"/>
<circle cx="192.949" cy="235.77" r="5.4661" fill="#C5BDB1" fill-opacity="0.2"/>
<circle cx="192.949" cy="251.075" r="5.4661" fill="#C5BDB1" fill-opacity="0.2"/>
<circle cx="192.949" cy="266.38" r="5.4661" fill="#C5BDB1" fill-opacity="0.2"/>
<circle cx="192.949" cy="281.686" r="5.4661" fill="#C5BDB1" fill-opacity="0.2"/>
<circle cx="192.949" cy="296.991" r="5.4661" fill="#C5BDB1" fill-opacity="0.2"/>
<circle cx="209.379" cy="0.822487" r="5.4661" fill="#C5BDB1" fill-opacity="0.2"/>
<circle cx="209.379" cy="16.1275" r="5.4661" fill="#C5BDB1" fill-opacity="0.2"/>
<circle cx="209.379" cy="31.4327" r="5.4661" fill="#C5BDB1" fill-opacity="0.2"/>
<circle cx="209.379" cy="46.7377" r="5.4661" fill="#C5BDB1" fill-opacity="0.2"/>
<circle cx="209.379" cy="62.0428" r="5.4661" fill="#C5BDB1" fill-opacity="0.2"/>
<circle cx="209.379" cy="77.3479" r="5.4661" fill="#C5BDB1" fill-opacity="0.2"/>
<circle cx="209.379" cy="92.653" r="5.4661" fill="#C5BDB1" fill-opacity="0.2"/>
<circle cx="209.379" cy="107.958" r="5.4661" fill="#C5BDB1" fill-opacity="0.2"/>
<circle cx="209.379" cy="123.263" r="5.4661" fill="#C5BDB1" fill-opacity="0.2"/>
<circle cx="209.379" cy="138.568" r="5.4661" fill="#C5BDB1" fill-opacity="0.2"/>
<circle cx="209.379" cy="153.873" r="5.4661" fill="#C5BDB1" fill-opacity="0.2"/>
<circle cx="209.379" cy="169.178" r="5.4661" fill="#C5BDB1" fill-opacity="0.2"/>
<circle cx="209.379" cy="184.483" r="5.4661" fill="#C5BDB1" fill-opacity="0.2"/>
<circle cx="209.379" cy="199.789" r="5.4661" fill="#C5BDB1" fill-opacity="0.2"/>
<circle cx="209.379" cy="215.094" r="5.4661" fill="#C5BDB1" fill-opacity="0.2"/>
<circle cx="209.379" cy="230.399" r="5.4661" fill="#C5BDB1" fill-opacity="0.2"/>
<circle cx="209.379" cy="245.704" r="5.4661" fill="#C5BDB1" fill-opacity="0.2"/>
<circle cx="209.379" cy="261.009" r="5.4661" fill="#C5BDB1" fill-opacity="0.2"/>
<circle cx="209.379" cy="276.314" r="5.4661" fill="#C5BDB1" fill-opacity="0.2"/>
<circle cx="209.379" cy="291.619" r="5.4661" fill="#C5BDB1" fill-opacity="0.2"/>
<circle cx="225.808" cy="-4.54903" r="5.4661" fill="#C5BDB1" fill-opacity="0.2"/>
<circle cx="225.808" cy="10.7561" r="5.4661" fill="#C5BDB1" fill-opacity="0.2"/>
<circle cx="225.808" cy="26.0612" r="5.4661" fill="#C5BDB1" fill-opacity="0.2"/>
<circle cx="225.808" cy="41.3662" r="5.4661" fill="#C5BDB1" fill-opacity="0.2"/>
<circle cx="225.808" cy="56.6714" r="5.4661" fill="#C5BDB1" fill-opacity="0.2"/>
<circle cx="225.808" cy="71.9764" r="5.4661" fill="#C5BDB1" fill-opacity="0.2"/>
<circle cx="225.808" cy="87.2815" r="5.4661" fill="#C5BDB1" fill-opacity="0.2"/>
<circle cx="225.808" cy="102.587" r="5.4661" fill="#C5BDB1" fill-opacity="0.2"/>
<circle cx="225.808" cy="117.892" r="5.4661" fill="#C5BDB1" fill-opacity="0.2"/>
<circle cx="225.808" cy="133.197" r="5.4661" fill="#C5BDB1" fill-opacity="0.2"/>
<circle cx="225.808" cy="148.502" r="5.4661" fill="#C5BDB1" fill-opacity="0.2"/>
<circle cx="225.808" cy="163.807" r="5.4661" fill="#C5BDB1" fill-opacity="0.2"/>
<circle cx="225.808" cy="179.112" r="5.4661" fill="#C5BDB1" fill-opacity="0.2"/>
<circle cx="225.808" cy="194.417" r="5.4661" fill="#C5BDB1" fill-opacity="0.2"/>
<circle cx="225.808" cy="209.722" r="5.4661" fill="#C5BDB1" fill-opacity="0.2"/>
<circle cx="225.808" cy="225.027" r="5.4661" fill="#C5BDB1" fill-opacity="0.2"/>
<circle cx="225.808" cy="240.332" r="5.4661" fill="#C5BDB1" fill-opacity="0.2"/>
<circle cx="225.808" cy="255.637" r="5.4661" fill="#C5BDB1" fill-opacity="0.2"/>
<circle cx="225.808" cy="270.943" r="5.4661" fill="#C5BDB1" fill-opacity="0.2"/>
<circle cx="225.808" cy="286.248" r="5.4661" fill="#C5BDB1" fill-opacity="0.2"/>
<circle cx="242.239" cy="5.38462" r="5.4661" fill="#C5BDB1" fill-opacity="0.2"/>
<circle cx="242.239" cy="20.6897" r="5.4661" fill="#C5BDB1" fill-opacity="0.2"/>
<circle cx="242.239" cy="35.9948" r="5.4661" fill="#C5BDB1" fill-opacity="0.2"/>
<circle cx="242.239" cy="51.2998" r="5.4661" fill="#C5BDB1" fill-opacity="0.2"/>
<circle cx="242.239" cy="66.605" r="5.4661" fill="#C5BDB1" fill-opacity="0.2"/>
<circle cx="242.239" cy="81.91" r="5.4661" fill="#C5BDB1" fill-opacity="0.2"/>
<circle cx="242.239" cy="97.2151" r="5.4661" fill="#C5BDB1" fill-opacity="0.2"/>
<circle cx="242.239" cy="112.52" r="5.4661" fill="#C5BDB1" fill-opacity="0.2"/>
<circle cx="242.239" cy="127.825" r="5.4661" fill="#C5BDB1" fill-opacity="0.2"/>
<circle cx="242.239" cy="143.13" r="5.4661" fill="#C5BDB1" fill-opacity="0.2"/>
<circle cx="242.239" cy="158.435" r="5.4661" fill="#C5BDB1" fill-opacity="0.2"/>
<circle cx="242.239" cy="173.741" r="5.4661" fill="#C5BDB1" fill-opacity="0.2"/>
<circle cx="242.239" cy="189.046" r="5.4661" fill="#C5BDB1" fill-opacity="0.2"/>
<circle cx="242.239" cy="204.351" r="5.4661" fill="#C5BDB1" fill-opacity="0.2"/>
<circle cx="242.239" cy="219.656" r="5.4661" fill="#C5BDB1" fill-opacity="0.2"/>
<circle cx="242.239" cy="234.961" r="5.4661" fill="#C5BDB1" fill-opacity="0.2"/>
<circle cx="242.239" cy="250.266" r="5.4661" fill="#C5BDB1" fill-opacity="0.2"/>
<circle cx="242.239" cy="265.571" r="5.4661" fill="#C5BDB1" fill-opacity="0.2"/>
<circle cx="242.239" cy="280.876" r="5.4661" fill="#C5BDB1" fill-opacity="0.2"/>
<circle cx="258.668" cy="0.0130997" r="5.4661" fill="#C5BDB1" fill-opacity="0.2"/>
<circle cx="258.668" cy="15.3182" r="5.4661" fill="#C5BDB1" fill-opacity="0.2"/>
<circle cx="258.668" cy="30.6233" r="5.4661" fill="#C5BDB1" fill-opacity="0.2"/>
<circle cx="258.668" cy="45.9284" r="5.4661" fill="#C5BDB1" fill-opacity="0.2"/>
<circle cx="258.668" cy="61.2334" r="5.4661" fill="#C5BDB1" fill-opacity="0.2"/>
<circle cx="258.668" cy="76.5386" r="5.4661" fill="#C5BDB1" fill-opacity="0.2"/>
<circle cx="258.668" cy="91.8436" r="5.4661" fill="#C5BDB1" fill-opacity="0.2"/>
<circle cx="258.668" cy="107.149" r="5.4661" fill="#C5BDB1" fill-opacity="0.2"/>
<circle cx="258.668" cy="122.454" r="5.4661" fill="#C5BDB1" fill-opacity="0.2"/>
<circle cx="258.668" cy="137.759" r="5.4661" fill="#C5BDB1" fill-opacity="0.2"/>
<circle cx="258.668" cy="153.064" r="5.4661" fill="#C5BDB1" fill-opacity="0.2"/>
<circle cx="258.668" cy="168.369" r="5.4661" fill="#C5BDB1" fill-opacity="0.2"/>
<circle cx="258.668" cy="183.674" r="5.4661" fill="#C5BDB1" fill-opacity="0.2"/>
<circle cx="258.668" cy="198.979" r="5.4661" fill="#C5BDB1" fill-opacity="0.2"/>
<circle cx="258.668" cy="214.284" r="5.4661" fill="#C5BDB1" fill-opacity="0.2"/>
<circle cx="258.668" cy="229.589" r="5.4661" fill="#C5BDB1" fill-opacity="0.2"/>
<circle cx="258.668" cy="244.895" r="5.4661" fill="#C5BDB1" fill-opacity="0.2"/>
<circle cx="258.668" cy="260.2" r="5.4661" fill="#C5BDB1" fill-opacity="0.2"/>
<circle cx="258.668" cy="275.505" r="5.4661" fill="#C5BDB1" fill-opacity="0.2"/>
<circle cx="275.097" cy="-5.35836" r="5.4661" fill="#C5BDB1" fill-opacity="0.2"/>
<circle cx="275.097" cy="9.94669" r="5.4661" fill="#C5BDB1" fill-opacity="0.2"/>
<circle cx="275.097" cy="25.2518" r="5.4661" fill="#C5BDB1" fill-opacity="0.2"/>
<circle cx="275.097" cy="40.5569" r="5.4661" fill="#C5BDB1" fill-opacity="0.2"/>
<circle cx="275.097" cy="55.862" r="5.4661" fill="#C5BDB1" fill-opacity="0.2"/>
<circle cx="275.097" cy="71.167" r="5.4661" fill="#C5BDB1" fill-opacity="0.2"/>
<circle cx="275.097" cy="86.4721" r="5.4661" fill="#C5BDB1" fill-opacity="0.2"/>
<circle cx="275.097" cy="101.777" r="5.4661" fill="#C5BDB1" fill-opacity="0.2"/>
<circle cx="275.097" cy="117.082" r="5.4661" fill="#C5BDB1" fill-opacity="0.2"/>
<circle cx="275.097" cy="132.387" r="5.4661" fill="#C5BDB1" fill-opacity="0.2"/>
<circle cx="275.097" cy="147.692" r="5.4661" fill="#C5BDB1" fill-opacity="0.2"/>
<circle cx="275.097" cy="162.998" r="5.4661" fill="#C5BDB1" fill-opacity="0.2"/>
<circle cx="275.097" cy="178.303" r="5.4661" fill="#C5BDB1" fill-opacity="0.2"/>
<circle cx="275.097" cy="193.608" r="5.4661" fill="#C5BDB1" fill-opacity="0.2"/>
<circle cx="275.097" cy="208.913" r="5.4661" fill="#C5BDB1" fill-opacity="0.2"/>
<circle cx="275.097" cy="224.218" r="5.4661" fill="#C5BDB1" fill-opacity="0.2"/>
<circle cx="275.097" cy="239.523" r="5.4661" fill="#C5BDB1" fill-opacity="0.2"/>
<circle cx="275.097" cy="254.828" r="5.4661" fill="#C5BDB1" fill-opacity="0.2"/>
<circle cx="275.097" cy="270.133" r="5.4661" fill="#C5BDB1" fill-opacity="0.2"/>
<circle cx="291.528" cy="4.57523" r="5.4661" fill="#C5BDB1" fill-opacity="0.2"/>
<circle cx="291.528" cy="19.8803" r="5.4661" fill="#C5BDB1" fill-opacity="0.2"/>
<circle cx="291.528" cy="35.1854" r="5.4661" fill="#C5BDB1" fill-opacity="0.2"/>
<circle cx="291.528" cy="50.4905" r="5.4661" fill="#C5BDB1" fill-opacity="0.2"/>
<circle cx="291.528" cy="65.7956" r="5.4661" fill="#C5BDB1" fill-opacity="0.2"/>
<circle cx="291.528" cy="81.1006" r="5.4661" fill="#C5BDB1" fill-opacity="0.2"/>
<circle cx="291.528" cy="96.4057" r="5.4661" fill="#C5BDB1" fill-opacity="0.2"/>
<circle cx="291.528" cy="111.711" r="5.4661" fill="#C5BDB1" fill-opacity="0.2"/>
<circle cx="291.528" cy="127.016" r="5.4661" fill="#C5BDB1" fill-opacity="0.2"/>
<circle cx="291.528" cy="142.321" r="5.4661" fill="#C5BDB1" fill-opacity="0.2"/>
<circle cx="291.528" cy="157.626" r="5.4661" fill="#C5BDB1" fill-opacity="0.2"/>
<circle cx="291.528" cy="172.931" r="5.4661" fill="#C5BDB1" fill-opacity="0.2"/>
<circle cx="291.528" cy="188.236" r="5.4661" fill="#C5BDB1" fill-opacity="0.2"/>
<circle cx="291.528" cy="203.541" r="5.4661" fill="#C5BDB1" fill-opacity="0.2"/>
<circle cx="291.528" cy="218.846" r="5.4661" fill="#C5BDB1" fill-opacity="0.2"/>
<circle cx="291.528" cy="234.152" r="5.4661" fill="#C5BDB1" fill-opacity="0.2"/>
<circle cx="291.528" cy="249.457" r="5.4661" fill="#C5BDB1" fill-opacity="0.2"/>
<circle cx="291.528" cy="264.762" r="5.4661" fill="#C5BDB1" fill-opacity="0.2"/>
<circle cx="307.955" cy="-0.79641" r="5.4661" fill="#C5BDB1" fill-opacity="0.2"/>
<circle cx="307.955" cy="14.5087" r="5.4661" fill="#C5BDB1" fill-opacity="0.2"/>
<circle cx="307.955" cy="29.8138" r="5.4661" fill="#C5BDB1" fill-opacity="0.2"/>
<circle cx="307.955" cy="45.1189" r="5.4661" fill="#C5BDB1" fill-opacity="0.2"/>
<circle cx="307.955" cy="60.4239" r="5.4661" fill="#C5BDB1" fill-opacity="0.2"/>
<circle cx="307.955" cy="75.729" r="5.4661" fill="#C5BDB1" fill-opacity="0.2"/>
<circle cx="307.955" cy="91.0341" r="5.4661" fill="#C5BDB1" fill-opacity="0.2"/>
<circle cx="307.955" cy="106.339" r="5.4661" fill="#C5BDB1" fill-opacity="0.2"/>
<circle cx="307.955" cy="121.644" r="5.4661" fill="#C5BDB1" fill-opacity="0.2"/>
<circle cx="307.955" cy="136.949" r="5.4661" fill="#C5BDB1" fill-opacity="0.2"/>
<circle cx="307.955" cy="152.254" r="5.4661" fill="#C5BDB1" fill-opacity="0.2"/>
<circle cx="307.955" cy="167.56" r="5.4661" fill="#C5BDB1" fill-opacity="0.2"/>
<circle cx="307.955" cy="182.865" r="5.4661" fill="#C5BDB1" fill-opacity="0.2"/>
<circle cx="307.955" cy="198.17" r="5.4661" fill="#C5BDB1" fill-opacity="0.2"/>
<circle cx="307.955" cy="213.475" r="5.4661" fill="#C5BDB1" fill-opacity="0.2"/>
<circle cx="307.955" cy="228.78" r="5.4661" fill="#C5BDB1" fill-opacity="0.2"/>
<circle cx="307.955" cy="244.085" r="5.4661" fill="#C5BDB1" fill-opacity="0.2"/>
<circle cx="307.955" cy="259.39" r="5.4661" fill="#C5BDB1" fill-opacity="0.2"/>
<circle cx="324.387" cy="9.13731" r="5.4661" fill="#C5BDB1" fill-opacity="0.2"/>
<circle cx="324.387" cy="24.4424" r="5.4661" fill="#C5BDB1" fill-opacity="0.2"/>
<circle cx="324.387" cy="39.7475" r="5.4661" fill="#C5BDB1" fill-opacity="0.2"/>
<circle cx="324.387" cy="55.0526" r="5.4661" fill="#C5BDB1" fill-opacity="0.2"/>
<circle cx="324.387" cy="70.3577" r="5.4661" fill="#C5BDB1" fill-opacity="0.2"/>
<circle cx="324.387" cy="85.6628" r="5.4661" fill="#C5BDB1" fill-opacity="0.2"/>
<circle cx="324.387" cy="100.968" r="5.4661" fill="#C5BDB1" fill-opacity="0.2"/>
<circle cx="324.387" cy="116.273" r="5.4661" fill="#C5BDB1" fill-opacity="0.2"/>
<circle cx="324.387" cy="131.578" r="5.4661" fill="#C5BDB1" fill-opacity="0.2"/>
<circle cx="324.387" cy="146.883" r="5.4661" fill="#C5BDB1" fill-opacity="0.2"/>
<circle cx="324.387" cy="162.188" r="5.4661" fill="#C5BDB1" fill-opacity="0.2"/>
<circle cx="324.387" cy="177.493" r="5.4661" fill="#C5BDB1" fill-opacity="0.2"/>
<circle cx="324.387" cy="192.798" r="5.4661" fill="#C5BDB1" fill-opacity="0.2"/>
<circle cx="324.387" cy="208.103" r="5.4661" fill="#C5BDB1" fill-opacity="0.2"/>
<circle cx="324.387" cy="223.409" r="5.4661" fill="#C5BDB1" fill-opacity="0.2"/>
<circle cx="324.387" cy="238.714" r="5.4661" fill="#C5BDB1" fill-opacity="0.2"/>
<circle cx="324.387" cy="254.019" r="5.4661" fill="#C5BDB1" fill-opacity="0.2"/>
<circle cx="340.816" cy="3.76572" r="5.4661" fill="#C5BDB1" fill-opacity="0.2"/>
<circle cx="340.816" cy="19.0708" r="5.4661" fill="#C5BDB1" fill-opacity="0.2"/>
<circle cx="340.816" cy="34.3759" r="5.4661" fill="#C5BDB1" fill-opacity="0.2"/>
<circle cx="340.816" cy="49.6809" r="5.4661" fill="#C5BDB1" fill-opacity="0.2"/>
<circle cx="340.816" cy="64.9861" r="5.4661" fill="#C5BDB1" fill-opacity="0.2"/>
<circle cx="340.816" cy="80.2912" r="5.4661" fill="#C5BDB1" fill-opacity="0.2"/>
<circle cx="340.816" cy="95.5962" r="5.4661" fill="#C5BDB1" fill-opacity="0.2"/>
<circle cx="340.816" cy="110.901" r="5.4661" fill="#C5BDB1" fill-opacity="0.2"/>
<circle cx="340.816" cy="126.206" r="5.4661" fill="#C5BDB1" fill-opacity="0.2"/>
<circle cx="340.816" cy="141.512" r="5.4661" fill="#C5BDB1" fill-opacity="0.2"/>
<circle cx="340.816" cy="156.817" r="5.4661" fill="#C5BDB1" fill-opacity="0.2"/>
<circle cx="340.816" cy="172.122" r="5.4661" fill="#C5BDB1" fill-opacity="0.2"/>
<circle cx="340.816" cy="187.427" r="5.4661" fill="#C5BDB1" fill-opacity="0.2"/>
<circle cx="340.816" cy="202.732" r="5.4661" fill="#C5BDB1" fill-opacity="0.2"/>
<circle cx="340.816" cy="218.037" r="5.4661" fill="#C5BDB1" fill-opacity="0.2"/>
<circle cx="340.816" cy="233.342" r="5.4661" fill="#C5BDB1" fill-opacity="0.2"/>
<circle cx="340.816" cy="248.647" r="5.4661" fill="#C5BDB1" fill-opacity="0.2"/>
<circle cx="357.244" cy="-1.60561" r="5.4661" fill="#C5BDB1" fill-opacity="0.2"/>
<circle cx="357.244" cy="13.6994" r="5.4661" fill="#C5BDB1" fill-opacity="0.2"/>
<circle cx="357.244" cy="29.0046" r="5.4661" fill="#C5BDB1" fill-opacity="0.2"/>
<circle cx="357.244" cy="44.3096" r="5.4661" fill="#C5BDB1" fill-opacity="0.2"/>
<circle cx="357.244" cy="59.6147" r="5.4661" fill="#C5BDB1" fill-opacity="0.2"/>
<circle cx="357.244" cy="74.9198" r="5.4661" fill="#C5BDB1" fill-opacity="0.2"/>
<circle cx="357.244" cy="90.2249" r="5.4661" fill="#C5BDB1" fill-opacity="0.2"/>
<circle cx="357.244" cy="105.53" r="5.4661" fill="#C5BDB1" fill-opacity="0.2"/>
<circle cx="357.244" cy="120.835" r="5.4661" fill="#C5BDB1" fill-opacity="0.2"/>
<circle cx="357.244" cy="136.14" r="5.4661" fill="#C5BDB1" fill-opacity="0.2"/>
<circle cx="357.244" cy="151.445" r="5.4661" fill="#C5BDB1" fill-opacity="0.2"/>
<circle cx="357.244" cy="166.75" r="5.4661" fill="#C5BDB1" fill-opacity="0.2"/>
<circle cx="357.244" cy="182.055" r="5.4661" fill="#C5BDB1" fill-opacity="0.2"/>
<circle cx="357.244" cy="197.361" r="5.4661" fill="#C5BDB1" fill-opacity="0.2"/>
<circle cx="357.244" cy="212.666" r="5.4661" fill="#C5BDB1" fill-opacity="0.2"/>
<circle cx="357.244" cy="227.971" r="5.4661" fill="#C5BDB1" fill-opacity="0.2"/>
<circle cx="357.244" cy="243.276" r="5.4661" fill="#C5BDB1" fill-opacity="0.2"/>
<circle cx="373.675" cy="8.32774" r="5.4661" fill="#C5BDB1" fill-opacity="0.2"/>
<circle cx="373.675" cy="23.6329" r="5.4661" fill="#C5BDB1" fill-opacity="0.2"/>
<circle cx="373.675" cy="38.938" r="5.4661" fill="#C5BDB1" fill-opacity="0.2"/>
<circle cx="373.675" cy="54.243" r="5.4661" fill="#C5BDB1" fill-opacity="0.2"/>
<circle cx="373.675" cy="69.5481" r="5.4661" fill="#C5BDB1" fill-opacity="0.2"/>
<circle cx="373.675" cy="84.8532" r="5.4661" fill="#C5BDB1" fill-opacity="0.2"/>
<circle cx="373.675" cy="100.158" r="5.4661" fill="#C5BDB1" fill-opacity="0.2"/>
<circle cx="373.675" cy="115.463" r="5.4661" fill="#C5BDB1" fill-opacity="0.2"/>
<circle cx="373.675" cy="130.768" r="5.4661" fill="#C5BDB1" fill-opacity="0.2"/>
<circle cx="373.675" cy="146.074" r="5.4661" fill="#C5BDB1" fill-opacity="0.2"/>
<circle cx="373.675" cy="161.379" r="5.4661" fill="#C5BDB1" fill-opacity="0.2"/>
<circle cx="373.675" cy="176.684" r="5.4661" fill="#C5BDB1" fill-opacity="0.2"/>
<circle cx="373.675" cy="191.989" r="5.4661" fill="#C5BDB1" fill-opacity="0.2"/>
<circle cx="373.675" cy="207.294" r="5.4661" fill="#C5BDB1" fill-opacity="0.2"/>
<circle cx="373.675" cy="222.599" r="5.4661" fill="#C5BDB1" fill-opacity="0.2"/>
<circle cx="373.675" cy="237.904" r="5.4661" fill="#C5BDB1" fill-opacity="0.2"/>
<circle cx="390.104" cy="2.95634" r="5.4661" fill="#C5BDB1" fill-opacity="0.2"/>
<circle cx="390.104" cy="18.2615" r="5.4661" fill="#C5BDB1" fill-opacity="0.2"/>
<circle cx="390.104" cy="33.5665" r="5.4661" fill="#C5BDB1" fill-opacity="0.2"/>
<circle cx="390.104" cy="48.8716" r="5.4661" fill="#C5BDB1" fill-opacity="0.2"/>
<circle cx="390.104" cy="64.1767" r="5.4661" fill="#C5BDB1" fill-opacity="0.2"/>
<circle cx="390.104" cy="79.4818" r="5.4661" fill="#C5BDB1" fill-opacity="0.2"/>
<circle cx="390.104" cy="94.7868" r="5.4661" fill="#C5BDB1" fill-opacity="0.2"/>
<circle cx="390.104" cy="110.092" r="5.4661" fill="#C5BDB1" fill-opacity="0.2"/>
<circle cx="390.104" cy="125.397" r="5.4661" fill="#C5BDB1" fill-opacity="0.2"/>
<circle cx="390.104" cy="140.702" r="5.4661" fill="#C5BDB1" fill-opacity="0.2"/>
<circle cx="390.104" cy="156.007" r="5.4661" fill="#C5BDB1" fill-opacity="0.2"/>
<circle cx="390.104" cy="171.312" r="5.4661" fill="#C5BDB1" fill-opacity="0.2"/>
<circle cx="390.104" cy="186.617" r="5.4661" fill="#C5BDB1" fill-opacity="0.2"/>
<circle cx="390.104" cy="201.922" r="5.4661" fill="#C5BDB1" fill-opacity="0.2"/>
<circle cx="390.104" cy="217.228" r="5.4661" fill="#C5BDB1" fill-opacity="0.2"/>
<circle cx="390.104" cy="232.533" r="5.4661" fill="#C5BDB1" fill-opacity="0.2"/>
<circle cx="406.533" cy="-2.41512" r="5.4661" fill="#C5BDB1" fill-opacity="0.2"/>
<circle cx="406.533" cy="12.8899" r="5.4661" fill="#C5BDB1" fill-opacity="0.2"/>
<circle cx="406.533" cy="28.195" r="5.4661" fill="#C5BDB1" fill-opacity="0.2"/>
<circle cx="406.533" cy="43.5001" r="5.4661" fill="#C5BDB1" fill-opacity="0.2"/>
<circle cx="406.533" cy="58.8052" r="5.4661" fill="#C5BDB1" fill-opacity="0.2"/>
<circle cx="406.533" cy="74.1103" r="5.4661" fill="#C5BDB1" fill-opacity="0.2"/>
<circle cx="406.533" cy="89.4154" r="5.4661" fill="#C5BDB1" fill-opacity="0.2"/>
<circle cx="406.533" cy="104.72" r="5.4661" fill="#C5BDB1" fill-opacity="0.2"/>
<circle cx="406.533" cy="120.026" r="5.4661" fill="#C5BDB1" fill-opacity="0.2"/>
<circle cx="406.533" cy="135.331" r="5.4661" fill="#C5BDB1" fill-opacity="0.2"/>
<circle cx="406.533" cy="150.636" r="5.4661" fill="#C5BDB1" fill-opacity="0.2"/>
<circle cx="406.533" cy="165.941" r="5.4661" fill="#C5BDB1" fill-opacity="0.2"/>
<circle cx="406.533" cy="181.246" r="5.4661" fill="#C5BDB1" fill-opacity="0.2"/>
<circle cx="406.533" cy="196.551" r="5.4661" fill="#C5BDB1" fill-opacity="0.2"/>
<circle cx="406.533" cy="211.856" r="5.4661" fill="#C5BDB1" fill-opacity="0.2"/>
<circle cx="406.533" cy="227.161" r="5.4661" fill="#C5BDB1" fill-opacity="0.2"/>
</svg>
