<svg width="40" height="40" viewBox="0 0 40 40" fill="none" xmlns="http://www.w3.org/2000/svg">
<path d="M19.9593 13.6594C19.9593 13.6594 1.66247 15.5188 1.73747 17.3157C1.79685 18.7532 1.39372 23.6719 5.51247 28.7031C8.21247 32 12.9437 35.1781 20.6781 35.1781C28.2843 35.1781 32.4625 31.6656 35.0656 27.8656C38.4093 22.9782 38.2437 18.3938 38.2437 17.2563C38.2406 14.9782 23.975 12.7625 19.9593 13.6594V13.6594Z" fill="#D5D5D5"/>
<path d="M20.9063 9.55938C20.9063 9.55938 19.6719 8.75001 18.5438 8.85313C17.4157 8.95938 16.8875 9.62813 16.8875 9.62813L13.3531 18.4219L17.1125 22.6156L19.5657 24.3156L24.3125 24.1969L26.4094 9.60001L20.9063 9.55938V9.55938Z" fill="#307D31"/>
<path d="M21.1438 11.7062C21.1438 11.7062 20.2844 10.2594 20.1813 9.02187C20.0781 7.78437 21.0469 7.07187 21.5625 7.07187C22.825 7.07187 22.9688 7.85312 23.725 7.78437C24.4813 7.71562 24.725 7.04687 24.9281 6.02812C25.1344 4.99062 26.025 4.40624 26.8344 4.92187C27.6125 5.41874 27.3375 6.88749 27.3375 6.88749C27.3375 6.88749 27.9563 6.13124 28.6469 6.68124C29.2594 7.17187 29.0594 8.67812 29.0594 8.67812C29.0594 8.67812 30.4031 7.12812 31.5375 7.88749C32.6719 8.64687 31.8125 11.2594 31.8125 11.2594L31.4344 13.6L24.9656 11.1219C24.9656 11.1219 24.5875 10.2281 23.2094 10.3312C21.8344 10.4344 21.1438 11.7062 21.1438 11.7062V11.7062ZM14.2281 17.9031C14.2281 17.9031 15.3844 15.5562 17.9 16.3406C20.5375 17.1625 20.0594 19.7031 20.0594 19.7031C20.0594 19.7031 20.7344 19.2094 21.525 19.1406C22.3156 19.0719 23.2813 19.2094 23.2813 19.2094L23.1563 17.8469C23.1563 17.8469 21.4781 18.0687 20.4594 16.8687C19.0906 15.2531 20.0125 13.3937 20.0125 13.3937L20.2531 12.225L17.8438 10.675L16.1906 8.54062C16.1906 8.54062 15.6406 7.33749 14.1594 7.26874C12.6781 7.19999 11.9813 8.24374 11.9813 8.24374C11.9813 8.24374 8.80939 7.32812 7.19064 8.70312C6.09689 9.63437 6.38126 11.1594 6.38126 11.1594C6.38126 11.1594 5.61251 11.6156 4.28439 10.5C3.69376 10.0031 2.53751 10.3812 2.36564 11.3125C2.19376 12.2406 2.56251 13.4 2.56251 13.4L1.49689 14.0531L5.10939 17.7687L14.2281 17.9031V17.9031Z" fill="#58A12F"/>
<path d="M22.2469 17.075C22.2469 17.075 20.7813 17.1594 19.6656 14.5625C18.9969 13.0062 19.4656 9.98749 21.0438 10.2937C22.2813 10.5344 22.1094 12.6344 22.9719 12.8062C23.4 12.8906 24.35 10.6375 26.3782 10.5C28.0282 10.3875 30.1969 12.5656 30.1969 12.5656C30.1969 12.5656 31.1594 11.8781 31.2625 11.6375C31.3657 11.3969 31.5375 10.4687 32.6063 10.5375C33.7907 10.6125 33.6375 11.9156 33.6375 11.9156C33.6375 11.9156 35.05 11.3656 36.0813 11.8812C37.1907 12.4375 37.1125 13.5 37.1125 13.5C37.1125 13.5 38.1094 12.4344 38.9032 12.9844C39.6969 13.5344 37.4594 17.925 35.325 20.1281C33.1907 22.3312 30.4282 22.1844 30.4282 22.1844L22.2469 17.075Z" fill="#86C82C"/>
<path d="M8.72501 10.0062L8.46564 9.5031C8.46564 9.5031 9.25626 8.48123 11.0188 8.76248C12.9531 9.07185 13.1469 10.4187 13.1469 10.4187C13.1469 10.4187 12.15 10.7969 12.1188 10.75C12.0875 10.7031 11.1531 9.72185 11.1531 9.72185L9.30314 9.78435L8.72501 10.0062V10.0062Z" fill="#D2608C"/>
<path d="M8.90939 10.3875C8.90939 10.3875 9.80939 9.96249 10.6938 10.1531C11.5781 10.3437 11.7844 11.0531 11.7844 11.0531L12.6063 10.7219C12.6063 10.7219 12.0875 9.60936 10.8656 9.39373C9.52501 9.15623 8.70001 9.96561 8.70001 9.96561L8.90939 10.3875V10.3875Z" fill="white"/>
<path d="M8.61877 11.6813C8.61877 11.6813 11.4938 10.8656 12.5938 10.3219C14.3563 9.45001 15.8875 8.66564 16.3344 8.36564C16.5719 8.20626 16.7375 8.02501 17.0563 8.09064C17.375 8.15626 20.2407 13.8563 15.5688 15.9313C13.6781 16.7719 11.6469 17.0563 11.6469 17.0563L8.72815 14.5906L8.61877 11.6813V11.6813Z" fill="#FE2A19"/>
<path d="M9.61561 12.5094C9.54686 12.7125 11.0844 15.6406 14.3125 14.4437C17.35 13.3187 16.3531 9.72499 16.1625 9.59686C16.0375 9.51561 14.5969 10.3125 13.0406 11.0062C11.4156 11.7281 9.67186 12.3469 9.61561 12.5094V12.5094Z" fill="#CB1C35"/>
<path d="M11.9219 13.0813C12.4531 13.2906 13.1563 13.0719 13.8656 12.7656C14.5188 12.4844 15.325 12.0469 15.3469 11.575C15.3688 11.1063 14.2219 10.5813 13.9219 10.5906C13.625 10.6031 12.2875 11.1906 12.1094 11.475C11.9313 11.7625 11.5344 12.9281 11.9219 13.0813Z" fill="#FF5F5D"/>
<path d="M11.5625 13.0688C11.2625 12.9906 10.9875 13.2875 10.9125 13.6344C10.8156 14.0875 11.2531 14.1844 11.4531 14.0188C11.7625 13.7625 11.8469 13.1406 11.5625 13.0688ZM13.175 13.3125C12.8781 13.3219 12.7656 13.7969 12.8687 14.1375C13 14.5844 13.4469 14.4656 13.525 14.2188C13.6687 13.7813 13.4687 13.3031 13.175 13.3125V13.3125ZM14.7781 12.5219C14.5625 12.7125 14.7719 13.1375 15.0594 13.3281C15.4344 13.5781 15.6937 13.2156 15.6 12.9813C15.4344 12.5656 14.9906 12.3344 14.7781 12.5219V12.5219ZM15.3531 11.1594C15.3687 11.4375 15.8094 11.55 16.1187 11.4594C16.525 11.3406 16.4031 10.9188 16.175 10.8406C15.7687 10.7 15.3375 10.8844 15.3531 11.1594V11.1594Z" fill="#F7CA76"/>
<path d="M14.925 18.5031C15.2094 17.7344 16.7 16.5031 18.275 17.6375C19.8094 18.7438 19.1062 20.5625 18.45 21.1594C17.7375 21.8094 16.3187 22 15.5219 21.1188C14.725 20.2375 14.5437 19.5313 14.925 18.5031V18.5031Z" fill="#E9FCAE"/>
<path d="M5.72501 19.5625C5.80626 19.4625 6.00938 19.2062 5.88438 18.7562C5.67501 18.0031 5.14376 17.075 4.12813 15.8781C2.35626 13.7906 1.47813 13.2469 0.915634 13.8406C0.318759 14.4719 1.16251 15.9469 2.28438 17.3C3.40626 18.6531 5.21563 20.1937 5.72501 19.5625V19.5625Z" fill="#307D31"/>
<path d="M5.12815 18.2812C4.95628 18.4219 4.0219 17.7719 3.05628 16.6312C2.09065 15.4906 1.38128 14.5312 1.68753 14.2969C2.07503 14 3.47815 15.4719 3.8469 15.9812C4.21565 16.4906 5.51253 17.9656 5.12815 18.2812V18.2812Z" fill="#E9FCAE"/>
<path d="M25.4188 12.3281L25.9469 11.8187C25.9469 11.8187 27.6563 14.0906 29 13.0812C30.6156 11.8687 29.0188 9.9031 29.0188 9.9031L29.7219 9.5531L30.6531 10.9937L30.7219 13.0312L29.125 14.4187C29.125 14.4187 27.3688 14.4187 27.2281 14.2094C27.0875 13.9969 25.4188 12.3281 25.4188 12.3281V12.3281Z" fill="white"/>
<path d="M24.875 12.8031L25.5719 12.1844C25.5719 12.1844 27.5438 14.9812 29.5125 13.5281C31.4 12.1312 29.6656 9.58436 29.6656 9.58436L30.3625 9.17499C30.3625 9.17499 31.7437 10.7344 31.1969 12.775C30.7562 14.4125 29.1219 15.1781 27.7875 14.8969C25.6937 14.4531 24.875 12.8031 24.875 12.8031Z" fill="#D2608C"/>
<path d="M27.7875 16.4C27.7875 16.4 27.8437 15.1 29.6625 13.65C31.4812 12.2 33.0094 12.5969 33.5187 13.0312C34.0312 13.4687 34.6406 15.075 33.2562 16.8187C32.5937 17.65 32.0812 17.7687 31.3594 17.7031C30.5156 17.625 29.05 16.8937 29.05 16.8937L27.7875 16.4V16.4Z" fill="#2C7B2E"/>
<path d="M32.8281 13.6094C32.0687 13.1063 30.5031 13.9032 29.6969 14.6563C28.8375 15.4625 28.6 16.375 28.6 16.375L30.4781 17.0375C30.4781 17.0375 31.5343 17.0125 32.2406 16.2063C33.2937 15.0063 33.3968 13.9875 32.8281 13.6094Z" fill="#E0FEAC"/>
<path d="M22.6344 14.2906C22.3719 14.4219 21.3906 15.5719 21.6813 17.8594C21.9844 20.225 23.675 21.7812 26.475 21.9844C30.0594 22.2406 32.075 19.6156 32.35 19.1406C32.625 18.6656 33.175 17.6219 32.7906 17.275C32.4063 16.9281 30.0094 16.7812 27.2469 15.9219C24.1438 14.9531 23.2188 13.9969 22.6344 14.2906Z" fill="#FE2A19"/>
<path d="M23.875 15.6219C23.4844 15.8156 23.1 19.2875 26.1656 20.3031C28.8063 21.1781 30.7688 18.2719 30.5688 17.8844C30.3688 17.4969 29.1781 17.6281 27.2125 16.9312C25.2438 16.2312 24.1813 15.4719 23.875 15.6219Z" fill="#CB1C35"/>
<path d="M25.2125 17.4656C25.3031 17.925 25.7312 18.4844 26.7031 18.9C27.475 19.2313 28.3031 19.0844 28.6531 18.9375C29.0031 18.7906 28.8687 17.3969 28.7094 17.3563C28.2125 17.2281 26.7062 16.7125 26.2469 16.5281C25.95 16.4094 25.1156 16.9719 25.2125 17.4656Z" fill="#FE6261"/>
<path d="M25.0375 17.5C25.0219 17.2125 24.5562 17.1157 24.2312 17.2219C23.8031 17.3594 23.9281 17.7875 24.1687 17.8594C24.5969 17.9907 25.0531 17.7844 25.0375 17.5ZM25.9781 18.7C25.7531 18.5219 25.3719 18.8063 25.2375 19.1219C25.0594 19.5344 25.4625 19.725 25.675 19.5907C26.0562 19.3532 26.2 18.875 25.9781 18.7Z" fill="#F7CA76"/>
<path d="M21.5188 23.8281C21.5188 23.8281 21.6032 23.2625 21.1907 22.4437C21.0125 22.0906 20.3094 21.3875 20.8375 20.7812C21.3657 20.1781 23.1532 20.5562 23.7313 20.6812C24.3094 20.8062 25.2407 20.7812 25.5938 20.4281C25.9469 20.075 26.1969 18.6156 27.4813 18.2625C28.8063 17.9 29.4313 19.0687 29.9719 19.5469C30.4 19.925 31.0282 20.075 31.9094 19.7719C32.7907 19.4687 32.5375 20.6281 32.5375 20.6281L31.5063 22.9187L21.5188 23.8281V23.8281ZM5.59065 20.6094C5.59065 20.6094 4.6594 18.8219 4.05628 16.0781C3.45315 13.3344 3.50003 12.4344 4.13128 12.2281C5.21253 11.875 5.94378 13.1844 6.3219 13.1094C6.70003 13.0344 6.77503 11.4469 7.88128 11.1969C8.98753 10.9437 9.41565 11.9531 9.96878 12.8594C10.5219 13.7656 11.5532 16.1812 11.5532 16.1812C11.5532 16.1812 12.5344 15.7281 13.3907 16.1812C14.2469 16.6344 15.0782 17.9937 15.4282 18.95C15.7813 19.9062 16.125 20.7469 16.125 20.7469C16.125 20.7469 17.3344 20.975 18.4469 21.6437C19.7063 22.4 20.3094 23.8844 20.3094 23.8844L14.1219 24.2812C14.1219 24.2812 6.6219 21.5875 6.5469 21.4625C6.46878 21.3375 5.51253 20.5062 5.59065 20.6094V20.6094Z" fill="#86C82C"/>
<path d="M6.57186 21.5906C6.57186 21.5906 6.19373 20.6844 6.31873 19.5281C6.44373 18.3719 6.98436 17.6344 7.89061 17.6344C8.59686 17.6344 9.81561 18.0938 11 19.7531C12.1844 21.4125 12.3344 22.925 12.3344 22.925L7.32498 22.2719L6.57186 21.5906V21.5906Z" fill="#2D792A"/>
<path d="M6.89686 21.2625C6.89686 21.2625 6.40624 19.2656 7.02186 18.7969C7.44999 18.4688 8.10311 18.5719 9.28749 19.8781C10.6375 21.3719 10.9219 22.6719 10.9219 22.6719L6.89686 21.2625Z" fill="#E7FCAE"/>
<path d="M12.9719 23.1625L13.55 23.2125C13.55 23.2125 13.8781 21.6781 15.1594 21.0469C16.3937 20.4437 17.7 20.9469 17.7 20.9469L17.9 20.2156L16.5406 19.6625L14.7031 20.0406C14.7031 20.0406 13.0406 21.55 13.0406 21.625C13.0406 21.7 12.9719 23.0875 12.9719 23.1625V23.1625Z" fill="white"/>
<path d="M11.9688 23.3843C11.9688 23.3093 12.1219 21.1968 13.9063 20.0125C16.1719 18.5093 18.0469 19.7875 18.0469 19.7875L17.8125 20.5093C17.8125 20.5093 15.8625 19.6562 14.3594 20.9437C13.125 22 12.85 23.5875 12.85 23.5875L11.9688 23.3843V23.3843Z" fill="#D2608C"/>
<path d="M21.0781 33.9594C31.9437 33.925 35.6312 25.1469 36.5094 21.8969C37.0844 19.7688 37.2906 17.8344 37.2906 17.8344L33.4781 22.1281C33.4781 22.1281 21.5219 24.4219 21.1219 24.4219C20.7219 24.4219 14.1156 23.8906 14.1156 23.8906L7.32811 22.2688L2.67499 17.7625C2.67499 17.7625 2.76249 20.5656 3.51561 22.6938C4.09686 24.3344 7.46249 34.0031 21.0781 33.9594Z" fill="#F6F6F6"/>
<path d="M20.0125 25.1344C25.2 25.2 32.7813 23.85 35.6219 21.0094C37.4406 19.1906 37.3063 17.55 37.3063 17.55C37.3063 17.55 34.025 23.7469 19.9656 23.5375C8.04065 23.3594 2.66565 17.7469 2.66565 17.7469C2.66565 17.7469 2.9844 19.6781 4.4469 20.8781C7.90627 23.7062 13.0938 25.0437 20.0125 25.1344ZM6.39377 24.6312C5.7844 25.2031 6.44377 26.6562 7.93127 27.9656C9.41877 29.275 10.9063 30.325 11.65 29.5812C12.4219 28.8094 10.6 26.9656 9.5719 26.0687C8.54377 25.1719 7.18752 23.8875 6.39377 24.6312V24.6312Z" fill="white"/>
</svg>
